ISO-10303-21;
HEADER;
/* Generated by software containing ST-Developer
 * from STEP Tools, Inc. (www.steptools.com) 
 */
/* OPTION: using custom renumber hook */

FILE_DESCRIPTION(
/* description */ ('STEP AP242',
'CAx-IF Rec.Pracs.---Representation and Presentation of Product Manufa
cturing Information (PMI)---4.0---2014-10-13',
'CAx-IF Rec.Pracs.---3D Tessellated Geometry---0.4---2014-09-14','2;1'),

/* implementation_level */ '2;1');

FILE_NAME(
/* name */ '687ce0c5eee7dc3bb3c0def0',
/* time_stamp */ '2025-07-20T12:27:50Z',
/* author */ (''),
/* organization */ (''),
/* preprocessor_version */ 'ST-DEVELOPER v20',
/* originating_system */ 'ONSHAPE BY PTC INC, 1.201',
/* authorisation */ '  ');

FILE_SCHEMA (('AP242_MANAGED_MODEL_BASED_3D_ENGINEERING_MIM_LF { 1 0 10303 442 1 1 4 }'));
ENDSEC;

DATA;
#10=SHAPE_REPRESENTATION_RELATIONSHIP('','',#255,#11);
#11=ADVANCED_BREP_SHAPE_REPRESENTATION('',(#253),#439);
#12=PLANE('',#278);
#13=PLANE('',#279);
#14=PLANE('',#286);
#15=PLANE('',#288);
#16=PLANE('',#291);
#17=PLANE('',#295);
#18=ORIENTED_EDGE('',*,*,#62,.F.);
#19=ORIENTED_EDGE('',*,*,#63,.T.);
#20=ORIENTED_EDGE('',*,*,#64,.F.);
#21=ORIENTED_EDGE('',*,*,#65,.T.);
#22=ORIENTED_EDGE('',*,*,#66,.F.);
#23=ORIENTED_EDGE('',*,*,#67,.T.);
#24=ORIENTED_EDGE('',*,*,#68,.F.);
#25=ORIENTED_EDGE('',*,*,#69,.T.);
#26=ORIENTED_EDGE('',*,*,#70,.F.);
#27=ORIENTED_EDGE('',*,*,#71,.T.);
#28=ORIENTED_EDGE('',*,*,#72,.F.);
#29=ORIENTED_EDGE('',*,*,#73,.T.);
#30=ORIENTED_EDGE('',*,*,#74,.T.);
#31=ORIENTED_EDGE('',*,*,#75,.F.);
#32=ORIENTED_EDGE('',*,*,#72,.T.);
#33=ORIENTED_EDGE('',*,*,#70,.T.);
#34=ORIENTED_EDGE('',*,*,#68,.T.);
#35=ORIENTED_EDGE('',*,*,#66,.T.);
#36=ORIENTED_EDGE('',*,*,#64,.T.);
#37=ORIENTED_EDGE('',*,*,#62,.T.);
#38=ORIENTED_EDGE('',*,*,#74,.F.);
#39=ORIENTED_EDGE('',*,*,#76,.F.);
#40=ORIENTED_EDGE('',*,*,#73,.F.);
#41=ORIENTED_EDGE('',*,*,#71,.F.);
#42=ORIENTED_EDGE('',*,*,#69,.F.);
#43=ORIENTED_EDGE('',*,*,#67,.F.);
#44=ORIENTED_EDGE('',*,*,#65,.F.);
#45=ORIENTED_EDGE('',*,*,#63,.F.);
#46=ORIENTED_EDGE('',*,*,#75,.T.);
#47=ORIENTED_EDGE('',*,*,#77,.F.);
#48=ORIENTED_EDGE('',*,*,#76,.T.);
#49=ORIENTED_EDGE('',*,*,#78,.F.);
#50=ORIENTED_EDGE('',*,*,#79,.T.);
#51=ORIENTED_EDGE('',*,*,#80,.F.);
#52=ORIENTED_EDGE('',*,*,#78,.T.);
#53=ORIENTED_EDGE('',*,*,#77,.T.);
#54=ORIENTED_EDGE('',*,*,#79,.F.);
#55=ORIENTED_EDGE('',*,*,#81,.F.);
#56=ORIENTED_EDGE('',*,*,#80,.T.);
#57=ORIENTED_EDGE('',*,*,#82,.F.);
#58=ORIENTED_EDGE('',*,*,#81,.T.);
#59=ORIENTED_EDGE('',*,*,#83,.F.);
#60=ORIENTED_EDGE('',*,*,#82,.T.);
#61=ORIENTED_EDGE('',*,*,#83,.T.);
#62=EDGE_CURVE('',#84,#84,#106,.T.);
#63=EDGE_CURVE('',#85,#85,#107,.T.);
#64=EDGE_CURVE('',#86,#86,#108,.T.);
#65=EDGE_CURVE('',#87,#87,#109,.T.);
#66=EDGE_CURVE('',#88,#88,#110,.T.);
#67=EDGE_CURVE('',#89,#89,#111,.T.);
#68=EDGE_CURVE('',#90,#90,#112,.T.);
#69=EDGE_CURVE('',#91,#91,#113,.T.);
#70=EDGE_CURVE('',#92,#92,#114,.T.);
#71=EDGE_CURVE('',#93,#93,#115,.T.);
#72=EDGE_CURVE('',#94,#94,#116,.T.);
#73=EDGE_CURVE('',#95,#95,#117,.T.);
#74=EDGE_CURVE('',#96,#96,#118,.T.);
#75=EDGE_CURVE('',#97,#97,#119,.T.);
#76=EDGE_CURVE('',#98,#98,#120,.T.);
#77=EDGE_CURVE('',#99,#99,#121,.T.);
#78=EDGE_CURVE('',#100,#100,#122,.T.);
#79=EDGE_CURVE('',#101,#101,#123,.T.);
#80=EDGE_CURVE('',#102,#102,#124,.T.);
#81=EDGE_CURVE('',#103,#103,#125,.T.);
#82=EDGE_CURVE('',#104,#104,#126,.T.);
#83=EDGE_CURVE('',#105,#105,#127,.T.);
#84=VERTEX_POINT('',#379);
#85=VERTEX_POINT('',#381);
#86=VERTEX_POINT('',#384);
#87=VERTEX_POINT('',#386);
#88=VERTEX_POINT('',#389);
#89=VERTEX_POINT('',#391);
#90=VERTEX_POINT('',#394);
#91=VERTEX_POINT('',#396);
#92=VERTEX_POINT('',#399);
#93=VERTEX_POINT('',#401);
#94=VERTEX_POINT('',#404);
#95=VERTEX_POINT('',#406);
#96=VERTEX_POINT('',#409);
#97=VERTEX_POINT('',#411);
#98=VERTEX_POINT('',#415);
#99=VERTEX_POINT('',#418);
#100=VERTEX_POINT('',#421);
#101=VERTEX_POINT('',#423);
#102=VERTEX_POINT('',#426);
#103=VERTEX_POINT('',#430);
#104=VERTEX_POINT('',#433);
#105=VERTEX_POINT('',#436);
#106=CIRCLE('',#258,0.0059);
#107=CIRCLE('',#259,0.0059);
#108=CIRCLE('',#261,0.0059);
#109=CIRCLE('',#262,0.0059);
#110=CIRCLE('',#264,0.0059);
#111=CIRCLE('',#265,0.0059);
#112=CIRCLE('',#267,0.0059);
#113=CIRCLE('',#268,0.0059);
#114=CIRCLE('',#270,0.0059);
#115=CIRCLE('',#271,0.0059);
#116=CIRCLE('',#273,0.0059);
#117=CIRCLE('',#274,0.0059);
#118=CIRCLE('',#276,0.05);
#119=CIRCLE('',#277,0.05);
#120=CIRCLE('',#280,0.025);
#121=CIRCLE('',#282,0.025);
#122=CIRCLE('',#284,0.03);
#123=CIRCLE('',#285,0.03);
#124=CIRCLE('',#287,0.025);
#125=CIRCLE('',#290,0.025);
#126=CIRCLE('',#292,0.02);
#127=CIRCLE('',#294,0.02);
#128=EDGE_LOOP('',(#18));
#129=EDGE_LOOP('',(#19));
#130=EDGE_LOOP('',(#20));
#131=EDGE_LOOP('',(#21));
#132=EDGE_LOOP('',(#22));
#133=EDGE_LOOP('',(#23));
#134=EDGE_LOOP('',(#24));
#135=EDGE_LOOP('',(#25));
#136=EDGE_LOOP('',(#26));
#137=EDGE_LOOP('',(#27));
#138=EDGE_LOOP('',(#28));
#139=EDGE_LOOP('',(#29));
#140=EDGE_LOOP('',(#30));
#141=EDGE_LOOP('',(#31));
#142=EDGE_LOOP('',(#32));
#143=EDGE_LOOP('',(#33));
#144=EDGE_LOOP('',(#34));
#145=EDGE_LOOP('',(#35));
#146=EDGE_LOOP('',(#36));
#147=EDGE_LOOP('',(#37));
#148=EDGE_LOOP('',(#38));
#149=EDGE_LOOP('',(#39));
#150=EDGE_LOOP('',(#40));
#151=EDGE_LOOP('',(#41));
#152=EDGE_LOOP('',(#42));
#153=EDGE_LOOP('',(#43));
#154=EDGE_LOOP('',(#44));
#155=EDGE_LOOP('',(#45));
#156=EDGE_LOOP('',(#46));
#157=EDGE_LOOP('',(#47));
#158=EDGE_LOOP('',(#48));
#159=EDGE_LOOP('',(#49));
#160=EDGE_LOOP('',(#50));
#161=EDGE_LOOP('',(#51));
#162=EDGE_LOOP('',(#52));
#163=EDGE_LOOP('',(#53));
#164=EDGE_LOOP('',(#54));
#165=EDGE_LOOP('',(#55));
#166=EDGE_LOOP('',(#56));
#167=EDGE_LOOP('',(#57));
#168=EDGE_LOOP('',(#58));
#169=EDGE_LOOP('',(#59));
#170=EDGE_LOOP('',(#60));
#171=EDGE_LOOP('',(#61));
#172=FACE_BOUND('',#128,.T.);
#173=FACE_BOUND('',#129,.T.);
#174=FACE_BOUND('',#130,.T.);
#175=FACE_BOUND('',#131,.T.);
#176=FACE_BOUND('',#132,.T.);
#177=FACE_BOUND('',#133,.T.);
#178=FACE_BOUND('',#134,.T.);
#179=FACE_BOUND('',#135,.T.);
#180=FACE_BOUND('',#136,.T.);
#181=FACE_BOUND('',#137,.T.);
#182=FACE_BOUND('',#138,.T.);
#183=FACE_BOUND('',#139,.T.);
#184=FACE_BOUND('',#140,.T.);
#185=FACE_BOUND('',#141,.T.);
#186=FACE_BOUND('',#142,.T.);
#187=FACE_BOUND('',#143,.T.);
#188=FACE_BOUND('',#144,.T.);
#189=FACE_BOUND('',#145,.T.);
#190=FACE_BOUND('',#146,.T.);
#191=FACE_BOUND('',#147,.T.);
#192=FACE_BOUND('',#148,.T.);
#193=FACE_BOUND('',#149,.T.);
#194=FACE_BOUND('',#150,.T.);
#195=FACE_BOUND('',#151,.T.);
#196=FACE_BOUND('',#152,.T.);
#197=FACE_BOUND('',#153,.T.);
#198=FACE_BOUND('',#154,.T.);
#199=FACE_BOUND('',#155,.T.);
#200=FACE_BOUND('',#156,.T.);
#201=FACE_BOUND('',#157,.T.);
#202=FACE_BOUND('',#158,.T.);
#203=FACE_BOUND('',#159,.T.);
#204=FACE_BOUND('',#160,.T.);
#205=FACE_BOUND('',#161,.T.);
#206=FACE_BOUND('',#162,.T.);
#207=FACE_BOUND('',#163,.T.);
#208=FACE_BOUND('',#164,.T.);
#209=FACE_BOUND('',#165,.T.);
#210=FACE_BOUND('',#166,.T.);
#211=FACE_BOUND('',#167,.T.);
#212=FACE_BOUND('',#168,.T.);
#213=FACE_BOUND('',#169,.T.);
#214=FACE_BOUND('',#170,.T.);
#215=FACE_BOUND('',#171,.T.);
#216=CYLINDRICAL_SURFACE('',#257,0.0059);
#217=CYLINDRICAL_SURFACE('',#260,0.0059);
#218=CYLINDRICAL_SURFACE('',#263,0.0059);
#219=CYLINDRICAL_SURFACE('',#266,0.0059);
#220=CYLINDRICAL_SURFACE('',#269,0.0059);
#221=CYLINDRICAL_SURFACE('',#272,0.0059);
#222=CYLINDRICAL_SURFACE('',#275,0.05);
#223=CYLINDRICAL_SURFACE('',#281,0.025);
#224=CYLINDRICAL_SURFACE('',#283,0.03);
#225=CYLINDRICAL_SURFACE('',#289,0.025);
#226=CYLINDRICAL_SURFACE('',#293,0.02);
#227=ADVANCED_FACE('',(#172,#173),#216,.F.);
#228=ADVANCED_FACE('',(#174,#175),#217,.F.);
#229=ADVANCED_FACE('',(#176,#177),#218,.F.);
#230=ADVANCED_FACE('',(#178,#179),#219,.F.);
#231=ADVANCED_FACE('',(#180,#181),#220,.F.);
#232=ADVANCED_FACE('',(#182,#183),#221,.F.);
#233=ADVANCED_FACE('',(#184,#185),#222,.T.);
#234=ADVANCED_FACE('',(#186,#187,#188,#189,#190,#191,#192),#12,.F.);
#235=ADVANCED_FACE('',(#193,#194,#195,#196,#197,#198,#199,#200),#13,.T.);
#236=ADVANCED_FACE('',(#201,#202),#223,.T.);
#237=ADVANCED_FACE('',(#203,#204),#224,.T.);
#238=ADVANCED_FACE('',(#205,#206),#14,.T.);
#239=ADVANCED_FACE('',(#207,#208),#15,.F.);
#240=ADVANCED_FACE('',(#209,#210),#225,.F.);
#241=ADVANCED_FACE('',(#211,#212),#16,.T.);
#242=ADVANCED_FACE('',(#213,#214),#226,.F.);
#243=ADVANCED_FACE('',(#215),#17,.T.);
#244=CLOSED_SHELL('',(#227,#228,#229,#230,#231,#232,#233,#234,#235,#236,
#237,#238,#239,#240,#241,#242,#243));
#245=STYLED_ITEM('',(#246),#253);
#246=PRESENTATION_STYLE_ASSIGNMENT((#247));
#247=SURFACE_STYLE_USAGE(.BOTH.,#248);
#248=SURFACE_SIDE_STYLE('',(#249));
#249=SURFACE_STYLE_FILL_AREA(#250);
#250=FILL_AREA_STYLE('',(#251));
#251=FILL_AREA_STYLE_COLOUR('',#252);
#252=COLOUR_RGB('',0.0862745098039216,0.31764705882353,0.690196078431373);
#253=MANIFOLD_SOLID_BREP('EJERCICIO 05 ONSHAPE',#244);
#254=SHAPE_DEFINITION_REPRESENTATION(#444,#255);
#255=SHAPE_REPRESENTATION('EJERCICIO 05 ONSHAPE',(#256),#439);
#256=AXIS2_PLACEMENT_3D('',#376,#296,#297);
#257=AXIS2_PLACEMENT_3D('',#377,#298,#299);
#258=AXIS2_PLACEMENT_3D('',#378,#300,#301);
#259=AXIS2_PLACEMENT_3D('',#380,#302,#303);
#260=AXIS2_PLACEMENT_3D('',#382,#304,#305);
#261=AXIS2_PLACEMENT_3D('',#383,#306,#307);
#262=AXIS2_PLACEMENT_3D('',#385,#308,#309);
#263=AXIS2_PLACEMENT_3D('',#387,#310,#311);
#264=AXIS2_PLACEMENT_3D('',#388,#312,#313);
#265=AXIS2_PLACEMENT_3D('',#390,#314,#315);
#266=AXIS2_PLACEMENT_3D('',#392,#316,#317);
#267=AXIS2_PLACEMENT_3D('',#393,#318,#319);
#268=AXIS2_PLACEMENT_3D('',#395,#320,#321);
#269=AXIS2_PLACEMENT_3D('',#397,#322,#323);
#270=AXIS2_PLACEMENT_3D('',#398,#324,#325);
#271=AXIS2_PLACEMENT_3D('',#400,#326,#327);
#272=AXIS2_PLACEMENT_3D('',#402,#328,#329);
#273=AXIS2_PLACEMENT_3D('',#403,#330,#331);
#274=AXIS2_PLACEMENT_3D('',#405,#332,#333);
#275=AXIS2_PLACEMENT_3D('',#407,#334,#335);
#276=AXIS2_PLACEMENT_3D('',#408,#336,#337);
#277=AXIS2_PLACEMENT_3D('',#410,#338,#339);
#278=AXIS2_PLACEMENT_3D('',#412,#340,#341);
#279=AXIS2_PLACEMENT_3D('',#413,#342,#343);
#280=AXIS2_PLACEMENT_3D('',#414,#344,#345);
#281=AXIS2_PLACEMENT_3D('',#416,#346,#347);
#282=AXIS2_PLACEMENT_3D('',#417,#348,#349);
#283=AXIS2_PLACEMENT_3D('',#419,#350,#351);
#284=AXIS2_PLACEMENT_3D('',#420,#352,#353);
#285=AXIS2_PLACEMENT_3D('',#422,#354,#355);
#286=AXIS2_PLACEMENT_3D('',#424,#356,#357);
#287=AXIS2_PLACEMENT_3D('',#425,#358,#359);
#288=AXIS2_PLACEMENT_3D('',#427,#360,#361);
#289=AXIS2_PLACEMENT_3D('',#428,#362,#363);
#290=AXIS2_PLACEMENT_3D('',#429,#364,#365);
#291=AXIS2_PLACEMENT_3D('',#431,#366,#367);
#292=AXIS2_PLACEMENT_3D('',#432,#368,#369);
#293=AXIS2_PLACEMENT_3D('',#434,#370,#371);
#294=AXIS2_PLACEMENT_3D('',#435,#372,#373);
#295=AXIS2_PLACEMENT_3D('',#437,#374,#375);
#296=DIRECTION('',(0.,0.,1.));
#297=DIRECTION('',(1.,0.,0.));
#298=DIRECTION('',(0.,0.,1.));
#299=DIRECTION('',(1.,0.,0.));
#300=DIRECTION('',(0.,0.,1.));
#301=DIRECTION('',(1.,0.,0.));
#302=DIRECTION('',(0.,0.,1.));
#303=DIRECTION('',(1.,0.,0.));
#304=DIRECTION('',(0.,0.,1.));
#305=DIRECTION('',(1.,0.,0.));
#306=DIRECTION('',(0.,0.,1.));
#307=DIRECTION('',(1.,0.,0.));
#308=DIRECTION('',(0.,0.,1.));
#309=DIRECTION('',(1.,0.,0.));
#310=DIRECTION('',(0.,0.,1.));
#311=DIRECTION('',(1.,0.,0.));
#312=DIRECTION('',(0.,0.,1.));
#313=DIRECTION('',(1.,0.,0.));
#314=DIRECTION('',(0.,0.,1.));
#315=DIRECTION('',(1.,0.,0.));
#316=DIRECTION('',(0.,0.,1.));
#317=DIRECTION('',(1.,0.,0.));
#318=DIRECTION('',(0.,0.,1.));
#319=DIRECTION('',(1.,0.,0.));
#320=DIRECTION('',(0.,0.,1.));
#321=DIRECTION('',(1.,0.,0.));
#322=DIRECTION('',(0.,0.,1.));
#323=DIRECTION('',(1.,0.,0.));
#324=DIRECTION('',(0.,0.,1.));
#325=DIRECTION('',(1.,0.,0.));
#326=DIRECTION('',(0.,0.,1.));
#327=DIRECTION('',(1.,0.,0.));
#328=DIRECTION('',(0.,0.,1.));
#329=DIRECTION('',(1.,0.,0.));
#330=DIRECTION('',(0.,0.,1.));
#331=DIRECTION('',(1.,0.,0.));
#332=DIRECTION('',(0.,0.,1.));
#333=DIRECTION('',(1.,0.,0.));
#334=DIRECTION('',(0.,0.,1.));
#335=DIRECTION('',(1.,0.,0.));
#336=DIRECTION('',(0.,0.,1.));
#337=DIRECTION('',(1.,0.,0.));
#338=DIRECTION('',(0.,0.,1.));
#339=DIRECTION('',(1.,0.,0.));
#340=DIRECTION('',(0.,0.,1.));
#341=DIRECTION('',(1.,0.,0.));
#342=DIRECTION('',(0.,0.,1.));
#343=DIRECTION('',(1.,0.,0.));
#344=DIRECTION('',(0.,0.,1.));
#345=DIRECTION('',(1.,0.,0.));
#346=DIRECTION('',(0.,0.,-1.));
#347=DIRECTION('',(-1.,0.,0.));
#348=DIRECTION('',(0.,0.,1.));
#349=DIRECTION('',(1.,0.,0.));
#350=DIRECTION('',(0.,0.,-1.));
#351=DIRECTION('',(-1.,0.,0.));
#352=DIRECTION('',(0.,0.,1.));
#353=DIRECTION('',(1.,0.,0.));
#354=DIRECTION('',(0.,0.,1.));
#355=DIRECTION('',(1.,0.,0.));
#356=DIRECTION('',(0.,0.,1.));
#357=DIRECTION('',(1.,0.,0.));
#358=DIRECTION('',(0.,0.,1.));
#359=DIRECTION('',(1.,0.,0.));
#360=DIRECTION('',(0.,0.,1.));
#361=DIRECTION('',(1.,0.,0.));
#362=DIRECTION('',(0.,0.,1.));
#363=DIRECTION('',(1.,0.,0.));
#364=DIRECTION('',(0.,0.,1.));
#365=DIRECTION('',(1.,0.,0.));
#366=DIRECTION('',(0.,0.,1.));
#367=DIRECTION('',(1.,0.,0.));
#368=DIRECTION('',(0.,0.,1.));
#369=DIRECTION('',(1.,0.,0.));
#370=DIRECTION('',(0.,0.,1.));
#371=DIRECTION('',(1.,0.,0.));
#372=DIRECTION('',(0.,0.,1.));
#373=DIRECTION('',(1.,0.,0.));
#374=DIRECTION('',(0.,0.,1.));
#375=DIRECTION('',(1.,0.,0.));
#376=CARTESIAN_POINT('',(0.,0.,0.));
#377=CARTESIAN_POINT('',(0.04,3.61270805748469E-19,-0.01));
#378=CARTESIAN_POINT('',(0.04,3.61270805748469E-19,-0.01));
#379=CARTESIAN_POINT('',(0.0459,3.61270805748469E-19,-0.01));
#380=CARTESIAN_POINT('',(0.04,3.61270805748469E-19,0.));
#381=CARTESIAN_POINT('',(0.0459,3.61270805748469E-19,0.));
#382=CARTESIAN_POINT('',(0.02,0.0346410161513775,-0.01));
#383=CARTESIAN_POINT('',(0.02,0.0346410161513775,-0.01));
#384=CARTESIAN_POINT('',(0.0259,0.0346410161513775,-0.01));
#385=CARTESIAN_POINT('',(0.02,0.0346410161513775,0.));
#386=CARTESIAN_POINT('',(0.0259,0.0346410161513775,0.));
#387=CARTESIAN_POINT('',(-0.02,0.0346410161513775,-0.01));
#388=CARTESIAN_POINT('',(-0.02,0.0346410161513775,-0.01));
#389=CARTESIAN_POINT('',(-0.0141,0.0346410161513775,-0.01));
#390=CARTESIAN_POINT('',(-0.02,0.0346410161513775,0.));
#391=CARTESIAN_POINT('',(-0.0141,0.0346410161513775,0.));
#392=CARTESIAN_POINT('',(-0.04,4.53731639084094E-18,-0.01));
#393=CARTESIAN_POINT('',(-0.04,4.53731639084094E-18,-0.01));
#394=CARTESIAN_POINT('',(-0.0341,4.53731639084094E-18,-0.01));
#395=CARTESIAN_POINT('',(-0.04,4.53731639084094E-18,0.));
#396=CARTESIAN_POINT('',(-0.0341,4.53731639084094E-18,0.));
#397=CARTESIAN_POINT('',(-0.02,-0.0346410161513775,-0.01));
#398=CARTESIAN_POINT('',(-0.02,-0.0346410161513775,-0.01));
#399=CARTESIAN_POINT('',(-0.0141,-0.0346410161513775,-0.01));
#400=CARTESIAN_POINT('',(-0.02,-0.0346410161513775,0.));
#401=CARTESIAN_POINT('',(-0.0141,-0.0346410161513775,0.));
#402=CARTESIAN_POINT('',(0.02,-0.0346410161513775,-0.01));
#403=CARTESIAN_POINT('',(0.02,-0.0346410161513775,-0.01));
#404=CARTESIAN_POINT('',(0.0259,-0.0346410161513775,-0.01));
#405=CARTESIAN_POINT('',(0.02,-0.0346410161513775,0.));
#406=CARTESIAN_POINT('',(0.0259,-0.0346410161513775,0.));
#407=CARTESIAN_POINT('',(0.,3.06161699786838E-18,-0.01));
#408=CARTESIAN_POINT('',(0.,3.06161699786838E-18,-0.01));
#409=CARTESIAN_POINT('',(0.05,3.06161699786838E-18,-0.01));
#410=CARTESIAN_POINT('',(0.,3.06161699786838E-18,0.));
#411=CARTESIAN_POINT('',(0.05,3.06161699786838E-18,0.));
#412=CARTESIAN_POINT('',(0.,0.,-0.01));
#413=CARTESIAN_POINT('',(0.,0.,0.));
#414=CARTESIAN_POINT('',(0.,1.53080849893419E-18,0.));
#415=CARTESIAN_POINT('',(0.025,1.53080849893419E-18,0.));
#416=CARTESIAN_POINT('',(0.,1.53080849893419E-18,0.055));
#417=CARTESIAN_POINT('',(0.,1.53080849893419E-18,0.055));
#418=CARTESIAN_POINT('',(0.025,1.53080849893419E-18,0.055));
#419=CARTESIAN_POINT('',(0.,1.83697019872103E-18,0.09));
#420=CARTESIAN_POINT('',(0.,1.83697019872103E-18,0.09));
#421=CARTESIAN_POINT('',(0.03,1.83697019872103E-18,0.09));
#422=CARTESIAN_POINT('',(0.,1.83697019872103E-18,0.055));
#423=CARTESIAN_POINT('',(0.03,1.83697019872103E-18,0.055));
#424=CARTESIAN_POINT('',(0.,0.,0.09));
#425=CARTESIAN_POINT('',(0.,1.53080849893419E-18,0.09));
#426=CARTESIAN_POINT('',(0.025,1.53080849893419E-18,0.09));
#427=CARTESIAN_POINT('',(0.,0.,0.055));
#428=CARTESIAN_POINT('',(0.,1.53080849893419E-18,0.065));
#429=CARTESIAN_POINT('',(0.,1.53080849893419E-18,0.065));
#430=CARTESIAN_POINT('',(0.025,1.53080849893419E-18,0.065));
#431=CARTESIAN_POINT('',(0.,0.,0.065));
#432=CARTESIAN_POINT('',(0.,1.22464679914735E-18,0.065));
#433=CARTESIAN_POINT('',(0.02,1.22464679914735E-18,0.065));
#434=CARTESIAN_POINT('',(0.,1.22464679914735E-18,0.));
#435=CARTESIAN_POINT('',(0.,1.22464679914735E-18,0.));
#436=CARTESIAN_POINT('',(0.02,1.22464679914735E-18,0.));
#437=CARTESIAN_POINT('',(0.,0.,0.));
#438=MECHANICAL_DESIGN_GEOMETRIC_PRESENTATION_REPRESENTATION('',(#245),
#439);
#439=(
GEOMETRIC_REPRESENTATION_CONTEXT(3)
GLOBAL_UNCERTAINTY_ASSIGNED_CONTEXT((#440))
GLOBAL_UNIT_ASSIGNED_CONTEXT((#443,#442,#441))
REPRESENTATION_CONTEXT('EJERCICIO 05 ONSHAPE','TOP_LEVEL_ASSEMBLY_PART')
);
#440=UNCERTAINTY_MEASURE_WITH_UNIT(LENGTH_MEASURE(1.E-8),#443,
'DISTANCE_ACCURACY_VALUE','Maximum Tolerance applied to model');
#441=(
NAMED_UNIT(*)
SI_UNIT($,.STERADIAN.)
SOLID_ANGLE_UNIT()
);
#442=(
NAMED_UNIT(*)
PLANE_ANGLE_UNIT()
SI_UNIT($,.RADIAN.)
);
#443=(
LENGTH_UNIT()
NAMED_UNIT(*)
SI_UNIT($,.METRE.)
);
#444=PRODUCT_DEFINITION_SHAPE('','',#445);
#445=PRODUCT_DEFINITION('','',#447,#446);
#446=PRODUCT_DEFINITION_CONTEXT('',#453,'design');
#447=PRODUCT_DEFINITION_FORMATION_WITH_SPECIFIED_SOURCE('','',#449,
 .NOT_KNOWN.);
#448=PRODUCT_RELATED_PRODUCT_CATEGORY('','',(#449));
#449=PRODUCT('EJERCICIO 05 ONSHAPE','EJERCICIO 05 ONSHAPE',
'EJERCICIO 05 ONSHAPE',(#451));
#450=PRODUCT_CATEGORY('','');
#451=PRODUCT_CONTEXT('',#453,'mechanical');
#452=APPLICATION_PROTOCOL_DEFINITION('international standard',
'ap242_managed_model_based_3d_engineering',2011,#453);
#453=APPLICATION_CONTEXT('managed model based 3d engineering');
ENDSEC;
END-ISO-10303-21;
