ISO-10303-21;
HEADER;
/* Generated by software containing ST-Developer
 * from STEP Tools, Inc. (www.steptools.com) 
 */

FILE_DESCRIPTION(
/* description */ (''),
/* implementation_level */ '2;1');

FILE_NAME(
/* name */ 's14-12.stp',
/* time_stamp */ '2026-04-09T22:55:32+03:00',
/* author */ ('DuctopwH'),
/* organization */ (''),
/* preprocessor_version */ 'ST-DEVELOPER v19.2',
/* originating_system */ 'Autodesk Inventor 2024',
/* authorisation */ '');

FILE_SCHEMA (('AUTOMOTIVE_DESIGN { 1 0 10303 214 3 1 1 }'));
ENDSEC;

DATA;
#10=MECHANICAL_DESIGN_GEOMETRIC_PRESENTATION_REPRESENTATION('',(#476,#477,
#478,#479,#480,#481,#482,#483,#484,#485,#486,#487,#488,#489,#490,#491,#492,
#493,#494,#495,#496,#497,#498,#499,#500,#501),#849);
#11=SHAPE_REPRESENTATION_RELATIONSHIP('SRR','None',#856,#12);
#12=ADVANCED_BREP_SHAPE_REPRESENTATION('',(#13),#848);
#13=MANIFOLD_SOLID_BREP('Solid1',#527);
#14=FACE_BOUND('',#74,.T.);
#15=PLANE('',#554);
#16=PLANE('',#555);
#17=PLANE('',#559);
#18=PLANE('',#560);
#19=PLANE('',#561);
#20=PLANE('',#562);
#21=PLANE('',#563);
#22=PLANE('',#564);
#23=PLANE('',#565);
#24=PLANE('',#566);
#25=PLANE('',#567);
#26=PLANE('',#568);
#27=PLANE('',#569);
#28=PLANE('',#570);
#29=PLANE('',#571);
#30=PLANE('',#572);
#31=PLANE('',#573);
#32=PLANE('',#574);
#33=PLANE('',#575);
#34=PLANE('',#576);
#35=PLANE('',#577);
#36=PLANE('',#578);
#37=PLANE('',#579);
#38=FACE_OUTER_BOUND('',#63,.T.);
#39=FACE_OUTER_BOUND('',#64,.T.);
#40=FACE_OUTER_BOUND('',#65,.T.);
#41=FACE_OUTER_BOUND('',#66,.T.);
#42=FACE_OUTER_BOUND('',#67,.T.);
#43=FACE_OUTER_BOUND('',#68,.T.);
#44=FACE_OUTER_BOUND('',#69,.T.);
#45=FACE_OUTER_BOUND('',#70,.T.);
#46=FACE_OUTER_BOUND('',#71,.T.);
#47=FACE_OUTER_BOUND('',#72,.T.);
#48=FACE_OUTER_BOUND('',#73,.T.);
#49=FACE_OUTER_BOUND('',#75,.T.);
#50=FACE_OUTER_BOUND('',#76,.T.);
#51=FACE_OUTER_BOUND('',#77,.T.);
#52=FACE_OUTER_BOUND('',#78,.T.);
#53=FACE_OUTER_BOUND('',#79,.T.);
#54=FACE_OUTER_BOUND('',#80,.T.);
#55=FACE_OUTER_BOUND('',#81,.T.);
#56=FACE_OUTER_BOUND('',#82,.T.);
#57=FACE_OUTER_BOUND('',#83,.T.);
#58=FACE_OUTER_BOUND('',#84,.T.);
#59=FACE_OUTER_BOUND('',#85,.T.);
#60=FACE_OUTER_BOUND('',#86,.T.);
#61=FACE_OUTER_BOUND('',#87,.T.);
#62=FACE_OUTER_BOUND('',#88,.T.);
#63=EDGE_LOOP('',(#336,#337,#338,#339,#340));
#64=EDGE_LOOP('',(#341,#342,#343,#344,#345));
#65=EDGE_LOOP('',(#346,#347,#348,#349,#350,#351,#352));
#66=EDGE_LOOP('',(#353,#354,#355,#356));
#67=EDGE_LOOP('',(#357,#358,#359,#360));
#68=EDGE_LOOP('',(#361,#362,#363,#364));
#69=EDGE_LOOP('',(#365,#366,#367,#368,#369,#370,#371,#372,#373,#374,#375,
#376));
#70=EDGE_LOOP('',(#377,#378,#379,#380,#381));
#71=EDGE_LOOP('',(#382,#383,#384,#385));
#72=EDGE_LOOP('',(#386,#387,#388,#389));
#73=EDGE_LOOP('',(#390,#391,#392,#393));
#74=EDGE_LOOP('',(#394));
#75=EDGE_LOOP('',(#395,#396,#397,#398));
#76=EDGE_LOOP('',(#399,#400,#401,#402));
#77=EDGE_LOOP('',(#403,#404,#405,#406));
#78=EDGE_LOOP('',(#407,#408,#409,#410,#411));
#79=EDGE_LOOP('',(#412,#413,#414,#415,#416,#417,#418,#419));
#80=EDGE_LOOP('',(#420,#421,#422,#423));
#81=EDGE_LOOP('',(#424,#425,#426,#427,#428));
#82=EDGE_LOOP('',(#429,#430,#431,#432,#433));
#83=EDGE_LOOP('',(#434,#435,#436,#437,#438,#439,#440,#441));
#84=EDGE_LOOP('',(#442,#443,#444,#445));
#85=EDGE_LOOP('',(#446,#447,#448,#449));
#86=EDGE_LOOP('',(#450,#451,#452,#453));
#87=EDGE_LOOP('',(#454,#455,#456,#457,#458,#459,#460,#461,#462,#463,#464,
#465));
#88=EDGE_LOOP('',(#466,#467,#468,#469,#470,#471,#472,#473));
#89=LINE('',#711,#153);
#90=LINE('',#717,#154);
#91=LINE('',#719,#155);
#92=LINE('',#721,#156);
#93=LINE('',#723,#157);
#94=LINE('',#724,#158);
#95=LINE('',#728,#159);
#96=LINE('',#729,#160);
#97=LINE('',#730,#161);
#98=LINE('',#736,#162);
#99=LINE('',#739,#163);
#100=LINE('',#742,#164);
#101=LINE('',#744,#165);
#102=LINE('',#745,#166);
#103=LINE('',#748,#167);
#104=LINE('',#750,#168);
#105=LINE('',#751,#169);
#106=LINE('',#754,#170);
#107=LINE('',#756,#171);
#108=LINE('',#758,#172);
#109=LINE('',#760,#173);
#110=LINE('',#762,#174);
#111=LINE('',#764,#175);
#112=LINE('',#766,#176);
#113=LINE('',#768,#177);
#114=LINE('',#769,#178);
#115=LINE('',#772,#179);
#116=LINE('',#774,#180);
#117=LINE('',#775,#181);
#118=LINE('',#778,#182);
#119=LINE('',#780,#183);
#120=LINE('',#782,#184);
#121=LINE('',#783,#185);
#122=LINE('',#786,#186);
#123=LINE('',#787,#187);
#124=LINE('',#790,#188);
#125=LINE('',#792,#189);
#126=LINE('',#793,#190);
#127=LINE('',#796,#191);
#128=LINE('',#798,#192);
#129=LINE('',#799,#193);
#130=LINE('',#803,#194);
#131=LINE('',#805,#195);
#132=LINE('',#807,#196);
#133=LINE('',#808,#197);
#134=LINE('',#810,#198);
#135=LINE('',#811,#199);
#136=LINE('',#813,#200);
#137=LINE('',#814,#201);
#138=LINE('',#818,#202);
#139=LINE('',#820,#203);
#140=LINE('',#821,#204);
#141=LINE('',#823,#205);
#142=LINE('',#825,#206);
#143=LINE('',#828,#207);
#144=LINE('',#829,#208);
#145=LINE('',#831,#209);
#146=LINE('',#832,#210);
#147=LINE('',#835,#211);
#148=LINE('',#836,#212);
#149=LINE('',#838,#213);
#150=LINE('',#841,#214);
#151=LINE('',#842,#215);
#152=LINE('',#844,#216);
#153=VECTOR('',#586,10.);
#154=VECTOR('',#593,10.);
#155=VECTOR('',#594,10.);
#156=VECTOR('',#595,10.);
#157=VECTOR('',#596,10.);
#158=VECTOR('',#597,10.);
#159=VECTOR('',#600,10.);
#160=VECTOR('',#601,10.);
#161=VECTOR('',#602,10.);
#162=VECTOR('',#607,10.);
#163=VECTOR('',#610,10.);
#164=VECTOR('',#613,10.);
#165=VECTOR('',#614,10.);
#166=VECTOR('',#615,10.);
#167=VECTOR('',#618,10.);
#168=VECTOR('',#619,10.);
#169=VECTOR('',#620,10.);
#170=VECTOR('',#623,10.);
#171=VECTOR('',#624,10.);
#172=VECTOR('',#625,10.);
#173=VECTOR('',#626,10.);
#174=VECTOR('',#627,10.);
#175=VECTOR('',#628,10.);
#176=VECTOR('',#629,10.);
#177=VECTOR('',#630,10.);
#178=VECTOR('',#631,10.);
#179=VECTOR('',#634,10.);
#180=VECTOR('',#635,10.);
#181=VECTOR('',#636,10.);
#182=VECTOR('',#639,10.);
#183=VECTOR('',#640,10.);
#184=VECTOR('',#641,10.);
#185=VECTOR('',#642,10.);
#186=VECTOR('',#645,10.);
#187=VECTOR('',#646,10.);
#188=VECTOR('',#649,10.);
#189=VECTOR('',#650,10.);
#190=VECTOR('',#651,10.);
#191=VECTOR('',#654,10.);
#192=VECTOR('',#655,10.);
#193=VECTOR('',#656,10.);
#194=VECTOR('',#659,10.);
#195=VECTOR('',#660,10.);
#196=VECTOR('',#661,10.);
#197=VECTOR('',#662,10.);
#198=VECTOR('',#665,10.);
#199=VECTOR('',#666,10.);
#200=VECTOR('',#669,10.);
#201=VECTOR('',#670,10.);
#202=VECTOR('',#675,10.);
#203=VECTOR('',#676,10.);
#204=VECTOR('',#677,10.);
#205=VECTOR('',#680,10.);
#206=VECTOR('',#683,10.);
#207=VECTOR('',#686,10.);
#208=VECTOR('',#687,10.);
#209=VECTOR('',#688,10.);
#210=VECTOR('',#689,10.);
#211=VECTOR('',#692,10.);
#212=VECTOR('',#693,10.);
#213=VECTOR('',#696,10.);
#214=VECTOR('',#699,10.);
#215=VECTOR('',#700,10.);
#216=VECTOR('',#703,10.);
#217=CIRCLE('',#551,10.);
#218=CIRCLE('',#552,10.);
#219=CIRCLE('',#553,10.);
#220=CIRCLE('',#557,10.);
#221=CIRCLE('',#558,10.);
#222=VERTEX_POINT('',#708);
#223=VERTEX_POINT('',#710);
#224=VERTEX_POINT('',#712);
#225=VERTEX_POINT('',#716);
#226=VERTEX_POINT('',#718);
#227=VERTEX_POINT('',#720);
#228=VERTEX_POINT('',#722);
#229=VERTEX_POINT('',#726);
#230=VERTEX_POINT('',#727);
#231=VERTEX_POINT('',#732);
#232=VERTEX_POINT('',#733);
#233=VERTEX_POINT('',#735);
#234=VERTEX_POINT('',#737);
#235=VERTEX_POINT('',#741);
#236=VERTEX_POINT('',#743);
#237=VERTEX_POINT('',#747);
#238=VERTEX_POINT('',#749);
#239=VERTEX_POINT('',#753);
#240=VERTEX_POINT('',#755);
#241=VERTEX_POINT('',#757);
#242=VERTEX_POINT('',#759);
#243=VERTEX_POINT('',#761);
#244=VERTEX_POINT('',#763);
#245=VERTEX_POINT('',#765);
#246=VERTEX_POINT('',#767);
#247=VERTEX_POINT('',#771);
#248=VERTEX_POINT('',#773);
#249=VERTEX_POINT('',#777);
#250=VERTEX_POINT('',#779);
#251=VERTEX_POINT('',#781);
#252=VERTEX_POINT('',#785);
#253=VERTEX_POINT('',#789);
#254=VERTEX_POINT('',#791);
#255=VERTEX_POINT('',#795);
#256=VERTEX_POINT('',#797);
#257=VERTEX_POINT('',#801);
#258=VERTEX_POINT('',#802);
#259=VERTEX_POINT('',#804);
#260=VERTEX_POINT('',#806);
#261=VERTEX_POINT('',#817);
#262=VERTEX_POINT('',#819);
#263=VERTEX_POINT('',#827);
#264=VERTEX_POINT('',#830);
#265=VERTEX_POINT('',#834);
#266=VERTEX_POINT('',#840);
#267=EDGE_CURVE('',#222,#222,#217,.T.);
#268=EDGE_CURVE('',#222,#223,#89,.T.);
#269=EDGE_CURVE('',#224,#223,#218,.T.);
#270=EDGE_CURVE('',#223,#224,#219,.T.);
#271=EDGE_CURVE('',#224,#225,#90,.T.);
#272=EDGE_CURVE('',#226,#225,#91,.T.);
#273=EDGE_CURVE('',#227,#226,#92,.T.);
#274=EDGE_CURVE('',#228,#227,#93,.T.);
#275=EDGE_CURVE('',#228,#224,#94,.T.);
#276=EDGE_CURVE('',#229,#230,#95,.T.);
#277=EDGE_CURVE('',#225,#230,#96,.T.);
#278=EDGE_CURVE('',#229,#228,#97,.T.);
#279=EDGE_CURVE('',#231,#232,#220,.T.);
#280=EDGE_CURVE('',#233,#231,#98,.T.);
#281=EDGE_CURVE('',#234,#233,#221,.T.);
#282=EDGE_CURVE('',#234,#232,#99,.T.);
#283=EDGE_CURVE('',#232,#235,#100,.T.);
#284=EDGE_CURVE('',#236,#234,#101,.T.);
#285=EDGE_CURVE('',#235,#236,#102,.T.);
#286=EDGE_CURVE('',#237,#231,#103,.T.);
#287=EDGE_CURVE('',#238,#237,#104,.T.);
#288=EDGE_CURVE('',#233,#238,#105,.T.);
#289=EDGE_CURVE('',#235,#239,#106,.T.);
#290=EDGE_CURVE('',#239,#240,#107,.T.);
#291=EDGE_CURVE('',#241,#240,#108,.T.);
#292=EDGE_CURVE('',#242,#241,#109,.T.);
#293=EDGE_CURVE('',#243,#242,#110,.T.);
#294=EDGE_CURVE('',#244,#243,#111,.T.);
#295=EDGE_CURVE('',#245,#244,#112,.T.);
#296=EDGE_CURVE('',#245,#246,#113,.T.);
#297=EDGE_CURVE('',#246,#237,#114,.T.);
#298=EDGE_CURVE('',#247,#236,#115,.T.);
#299=EDGE_CURVE('',#248,#247,#116,.T.);
#300=EDGE_CURVE('',#239,#248,#117,.T.);
#301=EDGE_CURVE('',#249,#247,#118,.T.);
#302=EDGE_CURVE('',#250,#249,#119,.T.);
#303=EDGE_CURVE('',#251,#250,#120,.T.);
#304=EDGE_CURVE('',#247,#251,#121,.T.);
#305=EDGE_CURVE('',#252,#248,#122,.T.);
#306=EDGE_CURVE('',#252,#251,#123,.T.);
#307=EDGE_CURVE('',#249,#253,#124,.T.);
#308=EDGE_CURVE('',#253,#254,#125,.T.);
#309=EDGE_CURVE('',#254,#250,#126,.T.);
#310=EDGE_CURVE('',#240,#255,#127,.T.);
#311=EDGE_CURVE('',#255,#256,#128,.T.);
#312=EDGE_CURVE('',#241,#256,#129,.T.);
#313=EDGE_CURVE('',#257,#258,#130,.T.);
#314=EDGE_CURVE('',#257,#259,#131,.T.);
#315=EDGE_CURVE('',#260,#259,#132,.T.);
#316=EDGE_CURVE('',#260,#258,#133,.T.);
#317=EDGE_CURVE('',#260,#253,#134,.T.);
#318=EDGE_CURVE('',#259,#254,#135,.T.);
#319=EDGE_CURVE('',#246,#258,#136,.T.);
#320=EDGE_CURVE('',#238,#260,#137,.T.);
#321=EDGE_CURVE('',#261,#245,#138,.T.);
#322=EDGE_CURVE('',#262,#244,#139,.T.);
#323=EDGE_CURVE('',#262,#261,#140,.T.);
#324=EDGE_CURVE('',#261,#257,#141,.T.);
#325=EDGE_CURVE('',#255,#252,#142,.T.);
#326=EDGE_CURVE('',#243,#263,#143,.T.);
#327=EDGE_CURVE('',#263,#229,#144,.T.);
#328=EDGE_CURVE('',#227,#264,#145,.T.);
#329=EDGE_CURVE('',#264,#262,#146,.T.);
#330=EDGE_CURVE('',#265,#242,#147,.T.);
#331=EDGE_CURVE('',#263,#265,#148,.T.);
#332=EDGE_CURVE('',#230,#265,#149,.T.);
#333=EDGE_CURVE('',#266,#226,#150,.T.);
#334=EDGE_CURVE('',#264,#266,#151,.T.);
#335=EDGE_CURVE('',#256,#266,#152,.T.);
#336=ORIENTED_EDGE('',*,*,#267,.F.);
#337=ORIENTED_EDGE('',*,*,#268,.T.);
#338=ORIENTED_EDGE('',*,*,#269,.F.);
#339=ORIENTED_EDGE('',*,*,#270,.F.);
#340=ORIENTED_EDGE('',*,*,#268,.F.);
#341=ORIENTED_EDGE('',*,*,#271,.T.);
#342=ORIENTED_EDGE('',*,*,#272,.F.);
#343=ORIENTED_EDGE('',*,*,#273,.F.);
#344=ORIENTED_EDGE('',*,*,#274,.F.);
#345=ORIENTED_EDGE('',*,*,#275,.T.);
#346=ORIENTED_EDGE('',*,*,#276,.T.);
#347=ORIENTED_EDGE('',*,*,#277,.F.);
#348=ORIENTED_EDGE('',*,*,#271,.F.);
#349=ORIENTED_EDGE('',*,*,#269,.T.);
#350=ORIENTED_EDGE('',*,*,#270,.T.);
#351=ORIENTED_EDGE('',*,*,#275,.F.);
#352=ORIENTED_EDGE('',*,*,#278,.F.);
#353=ORIENTED_EDGE('',*,*,#279,.F.);
#354=ORIENTED_EDGE('',*,*,#280,.F.);
#355=ORIENTED_EDGE('',*,*,#281,.F.);
#356=ORIENTED_EDGE('',*,*,#282,.T.);
#357=ORIENTED_EDGE('',*,*,#283,.F.);
#358=ORIENTED_EDGE('',*,*,#282,.F.);
#359=ORIENTED_EDGE('',*,*,#284,.F.);
#360=ORIENTED_EDGE('',*,*,#285,.F.);
#361=ORIENTED_EDGE('',*,*,#286,.F.);
#362=ORIENTED_EDGE('',*,*,#287,.F.);
#363=ORIENTED_EDGE('',*,*,#288,.F.);
#364=ORIENTED_EDGE('',*,*,#280,.T.);
#365=ORIENTED_EDGE('',*,*,#286,.T.);
#366=ORIENTED_EDGE('',*,*,#279,.T.);
#367=ORIENTED_EDGE('',*,*,#283,.T.);
#368=ORIENTED_EDGE('',*,*,#289,.T.);
#369=ORIENTED_EDGE('',*,*,#290,.T.);
#370=ORIENTED_EDGE('',*,*,#291,.F.);
#371=ORIENTED_EDGE('',*,*,#292,.F.);
#372=ORIENTED_EDGE('',*,*,#293,.F.);
#373=ORIENTED_EDGE('',*,*,#294,.F.);
#374=ORIENTED_EDGE('',*,*,#295,.F.);
#375=ORIENTED_EDGE('',*,*,#296,.T.);
#376=ORIENTED_EDGE('',*,*,#297,.T.);
#377=ORIENTED_EDGE('',*,*,#285,.T.);
#378=ORIENTED_EDGE('',*,*,#298,.F.);
#379=ORIENTED_EDGE('',*,*,#299,.F.);
#380=ORIENTED_EDGE('',*,*,#300,.F.);
#381=ORIENTED_EDGE('',*,*,#289,.F.);
#382=ORIENTED_EDGE('',*,*,#301,.F.);
#383=ORIENTED_EDGE('',*,*,#302,.F.);
#384=ORIENTED_EDGE('',*,*,#303,.F.);
#385=ORIENTED_EDGE('',*,*,#304,.F.);
#386=ORIENTED_EDGE('',*,*,#305,.T.);
#387=ORIENTED_EDGE('',*,*,#299,.T.);
#388=ORIENTED_EDGE('',*,*,#304,.T.);
#389=ORIENTED_EDGE('',*,*,#306,.F.);
#390=ORIENTED_EDGE('',*,*,#302,.T.);
#391=ORIENTED_EDGE('',*,*,#307,.T.);
#392=ORIENTED_EDGE('',*,*,#308,.T.);
#393=ORIENTED_EDGE('',*,*,#309,.T.);
#394=ORIENTED_EDGE('',*,*,#267,.T.);
#395=ORIENTED_EDGE('',*,*,#310,.T.);
#396=ORIENTED_EDGE('',*,*,#311,.T.);
#397=ORIENTED_EDGE('',*,*,#312,.F.);
#398=ORIENTED_EDGE('',*,*,#291,.T.);
#399=ORIENTED_EDGE('',*,*,#313,.F.);
#400=ORIENTED_EDGE('',*,*,#314,.T.);
#401=ORIENTED_EDGE('',*,*,#315,.F.);
#402=ORIENTED_EDGE('',*,*,#316,.T.);
#403=ORIENTED_EDGE('',*,*,#317,.F.);
#404=ORIENTED_EDGE('',*,*,#315,.T.);
#405=ORIENTED_EDGE('',*,*,#318,.T.);
#406=ORIENTED_EDGE('',*,*,#308,.F.);
#407=ORIENTED_EDGE('',*,*,#287,.T.);
#408=ORIENTED_EDGE('',*,*,#297,.F.);
#409=ORIENTED_EDGE('',*,*,#319,.T.);
#410=ORIENTED_EDGE('',*,*,#316,.F.);
#411=ORIENTED_EDGE('',*,*,#320,.F.);
#412=ORIENTED_EDGE('',*,*,#288,.T.);
#413=ORIENTED_EDGE('',*,*,#320,.T.);
#414=ORIENTED_EDGE('',*,*,#317,.T.);
#415=ORIENTED_EDGE('',*,*,#307,.F.);
#416=ORIENTED_EDGE('',*,*,#301,.T.);
#417=ORIENTED_EDGE('',*,*,#298,.T.);
#418=ORIENTED_EDGE('',*,*,#284,.T.);
#419=ORIENTED_EDGE('',*,*,#281,.T.);
#420=ORIENTED_EDGE('',*,*,#321,.T.);
#421=ORIENTED_EDGE('',*,*,#295,.T.);
#422=ORIENTED_EDGE('',*,*,#322,.F.);
#423=ORIENTED_EDGE('',*,*,#323,.T.);
#424=ORIENTED_EDGE('',*,*,#296,.F.);
#425=ORIENTED_EDGE('',*,*,#321,.F.);
#426=ORIENTED_EDGE('',*,*,#324,.T.);
#427=ORIENTED_EDGE('',*,*,#313,.T.);
#428=ORIENTED_EDGE('',*,*,#319,.F.);
#429=ORIENTED_EDGE('',*,*,#290,.F.);
#430=ORIENTED_EDGE('',*,*,#300,.T.);
#431=ORIENTED_EDGE('',*,*,#305,.F.);
#432=ORIENTED_EDGE('',*,*,#325,.F.);
#433=ORIENTED_EDGE('',*,*,#310,.F.);
#434=ORIENTED_EDGE('',*,*,#322,.T.);
#435=ORIENTED_EDGE('',*,*,#294,.T.);
#436=ORIENTED_EDGE('',*,*,#326,.T.);
#437=ORIENTED_EDGE('',*,*,#327,.T.);
#438=ORIENTED_EDGE('',*,*,#278,.T.);
#439=ORIENTED_EDGE('',*,*,#274,.T.);
#440=ORIENTED_EDGE('',*,*,#328,.T.);
#441=ORIENTED_EDGE('',*,*,#329,.T.);
#442=ORIENTED_EDGE('',*,*,#293,.T.);
#443=ORIENTED_EDGE('',*,*,#330,.F.);
#444=ORIENTED_EDGE('',*,*,#331,.F.);
#445=ORIENTED_EDGE('',*,*,#326,.F.);
#446=ORIENTED_EDGE('',*,*,#331,.T.);
#447=ORIENTED_EDGE('',*,*,#332,.F.);
#448=ORIENTED_EDGE('',*,*,#276,.F.);
#449=ORIENTED_EDGE('',*,*,#327,.F.);
#450=ORIENTED_EDGE('',*,*,#273,.T.);
#451=ORIENTED_EDGE('',*,*,#333,.F.);
#452=ORIENTED_EDGE('',*,*,#334,.F.);
#453=ORIENTED_EDGE('',*,*,#328,.F.);
#454=ORIENTED_EDGE('',*,*,#334,.T.);
#455=ORIENTED_EDGE('',*,*,#335,.F.);
#456=ORIENTED_EDGE('',*,*,#311,.F.);
#457=ORIENTED_EDGE('',*,*,#325,.T.);
#458=ORIENTED_EDGE('',*,*,#306,.T.);
#459=ORIENTED_EDGE('',*,*,#303,.T.);
#460=ORIENTED_EDGE('',*,*,#309,.F.);
#461=ORIENTED_EDGE('',*,*,#318,.F.);
#462=ORIENTED_EDGE('',*,*,#314,.F.);
#463=ORIENTED_EDGE('',*,*,#324,.F.);
#464=ORIENTED_EDGE('',*,*,#323,.F.);
#465=ORIENTED_EDGE('',*,*,#329,.F.);
#466=ORIENTED_EDGE('',*,*,#312,.T.);
#467=ORIENTED_EDGE('',*,*,#335,.T.);
#468=ORIENTED_EDGE('',*,*,#333,.T.);
#469=ORIENTED_EDGE('',*,*,#272,.T.);
#470=ORIENTED_EDGE('',*,*,#277,.T.);
#471=ORIENTED_EDGE('',*,*,#332,.T.);
#472=ORIENTED_EDGE('',*,*,#330,.T.);
#473=ORIENTED_EDGE('',*,*,#292,.T.);
#474=CYLINDRICAL_SURFACE('',#550,10.);
#475=CYLINDRICAL_SURFACE('',#556,10.);
#476=STYLED_ITEM('',(#866),#502);
#477=STYLED_ITEM('',(#867),#503);
#478=STYLED_ITEM('',(#867),#504);
#479=STYLED_ITEM('',(#866),#505);
#480=STYLED_ITEM('',(#866),#506);
#481=STYLED_ITEM('',(#866),#507);
#482=STYLED_ITEM('',(#867),#508);
#483=STYLED_ITEM('',(#867),#509);
#484=STYLED_ITEM('',(#867),#510);
#485=STYLED_ITEM('',(#867),#511);
#486=STYLED_ITEM('',(#867),#512);
#487=STYLED_ITEM('',(#867),#513);
#488=STYLED_ITEM('',(#867),#514);
#489=STYLED_ITEM('',(#867),#515);
#490=STYLED_ITEM('',(#867),#516);
#491=STYLED_ITEM('',(#867),#517);
#492=STYLED_ITEM('',(#867),#518);
#493=STYLED_ITEM('',(#867),#519);
#494=STYLED_ITEM('',(#867),#520);
#495=STYLED_ITEM('',(#867),#521);
#496=STYLED_ITEM('',(#867),#522);
#497=STYLED_ITEM('',(#867),#523);
#498=STYLED_ITEM('',(#867),#524);
#499=STYLED_ITEM('',(#867),#525);
#500=STYLED_ITEM('',(#867),#526);
#501=STYLED_ITEM('',(#865),#13);
#502=ADVANCED_FACE('',(#38),#474,.F.);
#503=ADVANCED_FACE('',(#39),#15,.T.);
#504=ADVANCED_FACE('',(#40),#16,.T.);
#505=ADVANCED_FACE('',(#41),#475,.F.);
#506=ADVANCED_FACE('',(#42),#17,.F.);
#507=ADVANCED_FACE('',(#43),#18,.F.);
#508=ADVANCED_FACE('',(#44),#19,.T.);
#509=ADVANCED_FACE('',(#45),#20,.T.);
#510=ADVANCED_FACE('',(#46),#21,.F.);
#511=ADVANCED_FACE('',(#47),#22,.F.);
#512=ADVANCED_FACE('',(#48,#14),#23,.T.);
#513=ADVANCED_FACE('',(#49),#24,.T.);
#514=ADVANCED_FACE('',(#50),#25,.T.);
#515=ADVANCED_FACE('',(#51),#26,.T.);
#516=ADVANCED_FACE('',(#52),#27,.T.);
#517=ADVANCED_FACE('',(#53),#28,.T.);
#518=ADVANCED_FACE('',(#54),#29,.T.);
#519=ADVANCED_FACE('',(#55),#30,.T.);
#520=ADVANCED_FACE('',(#56),#31,.T.);
#521=ADVANCED_FACE('',(#57),#32,.T.);
#522=ADVANCED_FACE('',(#58),#33,.T.);
#523=ADVANCED_FACE('',(#59),#34,.T.);
#524=ADVANCED_FACE('',(#60),#35,.T.);
#525=ADVANCED_FACE('',(#61),#36,.T.);
#526=ADVANCED_FACE('',(#62),#37,.T.);
#527=CLOSED_SHELL('',(#502,#503,#504,#505,#506,#507,#508,#509,#510,#511,
#512,#513,#514,#515,#516,#517,#518,#519,#520,#521,#522,#523,#524,#525,#526));
#528=DERIVED_UNIT_ELEMENT(#531,1.);
#529=DERIVED_UNIT_ELEMENT(#851,-3.);
#530=DIMENSIONAL_EXPONENTS(0.,1.,0.,0.,0.,0.,0.);
#531=(
CONVERSION_BASED_UNIT('gram',#533)
MASS_UNIT()
NAMED_UNIT(#530)
);
#532=(
MASS_UNIT()
NAMED_UNIT(*)
SI_UNIT(.KILO.,.GRAM.)
);
#533=MASS_MEASURE_WITH_UNIT(MASS_MEASURE(0.001),#532);
#534=DERIVED_UNIT((#528,#529));
#535=MEASURE_REPRESENTATION_ITEM('density measure',
POSITIVE_RATIO_MEASURE(1.),#534);
#536=PROPERTY_DEFINITION_REPRESENTATION(#541,#538);
#537=PROPERTY_DEFINITION_REPRESENTATION(#542,#539);
#538=REPRESENTATION('material name',(#540),#848);
#539=REPRESENTATION('density',(#535),#848);
#540=DESCRIPTIVE_REPRESENTATION_ITEM('Generic','Generic');
#541=PROPERTY_DEFINITION('material property','material name',#858);
#542=PROPERTY_DEFINITION('material property','density of part',#858);
#543=DATE_TIME_ROLE('creation_date');
#544=APPLIED_DATE_AND_TIME_ASSIGNMENT(#545,#543,(#858));
#545=DATE_AND_TIME(#546,#547);
#546=CALENDAR_DATE(2026,9,4);
#547=LOCAL_TIME(0,0,0.,#548);
#548=COORDINATED_UNIVERSAL_TIME_OFFSET(0,0,.BEHIND.);
#549=AXIS2_PLACEMENT_3D('',#706,#580,#581);
#550=AXIS2_PLACEMENT_3D('',#707,#582,#583);
#551=AXIS2_PLACEMENT_3D('',#709,#584,#585);
#552=AXIS2_PLACEMENT_3D('',#713,#587,#588);
#553=AXIS2_PLACEMENT_3D('',#714,#589,#590);
#554=AXIS2_PLACEMENT_3D('',#715,#591,#592);
#555=AXIS2_PLACEMENT_3D('',#725,#598,#599);
#556=AXIS2_PLACEMENT_3D('',#731,#603,#604);
#557=AXIS2_PLACEMENT_3D('',#734,#605,#606);
#558=AXIS2_PLACEMENT_3D('',#738,#608,#609);
#559=AXIS2_PLACEMENT_3D('',#740,#611,#612);
#560=AXIS2_PLACEMENT_3D('',#746,#616,#617);
#561=AXIS2_PLACEMENT_3D('',#752,#621,#622);
#562=AXIS2_PLACEMENT_3D('',#770,#632,#633);
#563=AXIS2_PLACEMENT_3D('',#776,#637,#638);
#564=AXIS2_PLACEMENT_3D('',#784,#643,#644);
#565=AXIS2_PLACEMENT_3D('',#788,#647,#648);
#566=AXIS2_PLACEMENT_3D('',#794,#652,#653);
#567=AXIS2_PLACEMENT_3D('',#800,#657,#658);
#568=AXIS2_PLACEMENT_3D('',#809,#663,#664);
#569=AXIS2_PLACEMENT_3D('',#812,#667,#668);
#570=AXIS2_PLACEMENT_3D('',#815,#671,#672);
#571=AXIS2_PLACEMENT_3D('',#816,#673,#674);
#572=AXIS2_PLACEMENT_3D('',#822,#678,#679);
#573=AXIS2_PLACEMENT_3D('',#824,#681,#682);
#574=AXIS2_PLACEMENT_3D('',#826,#684,#685);
#575=AXIS2_PLACEMENT_3D('',#833,#690,#691);
#576=AXIS2_PLACEMENT_3D('',#837,#694,#695);
#577=AXIS2_PLACEMENT_3D('',#839,#697,#698);
#578=AXIS2_PLACEMENT_3D('',#843,#701,#702);
#579=AXIS2_PLACEMENT_3D('',#845,#704,#705);
#580=DIRECTION('axis',(0.,0.,1.));
#581=DIRECTION('refdir',(1.,0.,0.));
#582=DIRECTION('center_axis',(0.,1.,2.44249065417534E-16));
#583=DIRECTION('ref_axis',(1.,0.,0.));
#584=DIRECTION('center_axis',(0.,-1.,-2.44249065417534E-16));
#585=DIRECTION('ref_axis',(1.,0.,0.));
#586=DIRECTION('',(0.,-1.,-2.44249065417534E-16));
#587=DIRECTION('center_axis',(0.,1.,2.44249065417535E-16));
#588=DIRECTION('ref_axis',(1.,0.,0.));
#589=DIRECTION('center_axis',(0.,1.,2.44249065417535E-16));
#590=DIRECTION('ref_axis',(1.,0.,0.));
#591=DIRECTION('center_axis',(0.,6.66133814775094E-16,-1.));
#592=DIRECTION('ref_axis',(0.,1.,6.66133814775094E-16));
#593=DIRECTION('',(1.,0.,0.));
#594=DIRECTION('',(0.,1.,6.66133814775094E-16));
#595=DIRECTION('',(1.,0.,0.));
#596=DIRECTION('',(0.,-1.,-6.66133814775094E-16));
#597=DIRECTION('',(1.,0.,0.));
#598=DIRECTION('center_axis',(0.,-1.,-2.44249065417535E-16));
#599=DIRECTION('ref_axis',(0.,2.44249065417535E-16,-1.));
#600=DIRECTION('',(1.,0.,0.));
#601=DIRECTION('',(0.,2.44249065417535E-16,-1.));
#602=DIRECTION('',(0.,-2.44249065417535E-16,1.));
#603=DIRECTION('center_axis',(0.,8.88178419700121E-16,-1.));
#604=DIRECTION('ref_axis',(1.,0.,0.));
#605=DIRECTION('center_axis',(0.,-8.88178419700126E-16,1.));
#606=DIRECTION('ref_axis',(1.,0.,0.));
#607=DIRECTION('',(0.,8.88178419700121E-16,-1.));
#608=DIRECTION('center_axis',(0.,8.88178419700125E-16,-1.));
#609=DIRECTION('ref_axis',(1.,0.,0.));
#610=DIRECTION('',(0.,8.88178419700121E-16,-1.));
#611=DIRECTION('center_axis',(1.,2.22044604925031E-15,1.97215226305252E-30));
#612=DIRECTION('ref_axis',(2.22044604925031E-15,-1.,-8.88178419700125E-16));
#613=DIRECTION('',(-2.22044604925031E-15,1.,8.88178419700126E-16));
#614=DIRECTION('',(2.22044604925031E-15,-1.,-8.88178419700125E-16));
#615=DIRECTION('',(8.75811540203011E-45,-8.88178419700125E-16,1.));
#616=DIRECTION('center_axis',(-1.,1.77635683940025E-15,1.57772181044202E-30));
#617=DIRECTION('ref_axis',(1.77635683940025E-15,1.,8.88178419700125E-16));
#618=DIRECTION('',(-1.77635683940025E-15,-1.,-8.88178419700126E-16));
#619=DIRECTION('',(7.00649232162409E-45,8.88178419700125E-16,-1.));
#620=DIRECTION('',(1.77635683940025E-15,1.,8.88178419700125E-16));
#621=DIRECTION('center_axis',(0.,8.88178419700126E-16,-1.));
#622=DIRECTION('ref_axis',(0.,1.,8.88178419700126E-16));
#623=DIRECTION('',(1.,0.,0.));
#624=DIRECTION('',(-2.96059473233375E-16,-1.,-8.88178419700126E-16));
#625=DIRECTION('',(-1.,0.,0.));
#626=DIRECTION('',(0.,1.,8.88178419700126E-16));
#627=DIRECTION('',(1.,0.,0.));
#628=DIRECTION('',(0.,-1.,-8.88178419700126E-16));
#629=DIRECTION('',(-1.,0.,0.));
#630=DIRECTION('',(-2.96059473233375E-16,1.,8.88178419700126E-16));
#631=DIRECTION('',(1.,0.,0.));
#632=DIRECTION('center_axis',(0.,1.,8.88178419700125E-16));
#633=DIRECTION('ref_axis',(-1.,0.,0.));
#634=DIRECTION('',(-1.,0.,0.));
#635=DIRECTION('',(-1.,0.,0.));
#636=DIRECTION('',(0.,-8.88178419700125E-16,1.));
#637=DIRECTION('center_axis',(1.,-2.77555756156289E-16,0.));
#638=DIRECTION('ref_axis',(0.,0.,-1.));
#639=DIRECTION('',(2.77555756156289E-16,1.,8.88178419700125E-16));
#640=DIRECTION('',(6.77927340424307E-32,2.44249065417534E-16,-1.));
#641=DIRECTION('',(-2.96059473233375E-16,-1.,-8.88178419700125E-16));
#642=DIRECTION('',(-1.32401821506521E-16,-0.447213595499958,0.894427190999916));
#643=DIRECTION('center_axis',(-2.48253415324727E-16,-0.894427190999916,
-0.447213595499958));
#644=DIRECTION('ref_axis',(-1.32401821506521E-16,-0.447213595499958,0.894427190999916));
#645=DIRECTION('',(1.32401821506521E-16,0.447213595499958,-0.894427190999916));
#646=DIRECTION('',(-1.,2.77555756156289E-16,0.));
#647=DIRECTION('center_axis',(0.,1.,2.44249065417534E-16));
#648=DIRECTION('ref_axis',(0.,-2.44249065417534E-16,1.));
#649=DIRECTION('',(-1.,0.,0.));
#650=DIRECTION('',(6.77927340424307E-32,-2.44249065417534E-16,1.));
#651=DIRECTION('',(1.,0.,0.));
#652=DIRECTION('center_axis',(0.,1.,2.44249065417534E-16));
#653=DIRECTION('ref_axis',(0.,-2.44249065417534E-16,1.));
#654=DIRECTION('',(1.90641385428411E-31,-2.44249065417534E-16,1.));
#655=DIRECTION('',(1.,0.,0.));
#656=DIRECTION('',(0.,-2.44249065417534E-16,1.));
#657=DIRECTION('center_axis',(-2.48253415324727E-16,0.894427190999916,0.447213595499958));
#658=DIRECTION('ref_axis',(1.32401821506521E-16,-0.447213595499958,0.894427190999916));
#659=DIRECTION('',(-1.32401821506521E-16,0.447213595499958,-0.894427190999916));
#660=DIRECTION('',(1.,2.77555756156289E-16,0.));
#661=DIRECTION('',(1.32401821506521E-16,-0.447213595499958,0.894427190999916));
#662=DIRECTION('',(-1.,0.,0.));
#663=DIRECTION('center_axis',(1.,2.77555756156289E-16,0.));
#664=DIRECTION('ref_axis',(0.,0.,-1.));
#665=DIRECTION('',(2.77555756156289E-16,-1.,-8.88178419700125E-16));
#666=DIRECTION('',(2.96059473233375E-16,-1.,-8.88178419700125E-16));
#667=DIRECTION('center_axis',(0.,1.,8.88178419700125E-16));
#668=DIRECTION('ref_axis',(-1.,0.,0.));
#669=DIRECTION('',(0.,-8.88178419700125E-16,1.));
#670=DIRECTION('',(-1.,0.,0.));
#671=DIRECTION('center_axis',(0.,-8.88178419700125E-16,1.));
#672=DIRECTION('ref_axis',(1.,0.,0.));
#673=DIRECTION('center_axis',(0.,1.,2.44249065417534E-16));
#674=DIRECTION('ref_axis',(0.,-2.44249065417534E-16,1.));
#675=DIRECTION('',(1.90641385428411E-31,2.44249065417534E-16,-1.));
#676=DIRECTION('',(0.,2.44249065417534E-16,-1.));
#677=DIRECTION('',(1.,0.,0.));
#678=DIRECTION('center_axis',(-1.,-2.96059473233375E-16,-2.62953635073671E-31));
#679=DIRECTION('ref_axis',(2.96059473233375E-16,-1.,-8.88178419700126E-16));
#680=DIRECTION('',(-2.96059473233375E-16,1.,8.88178419700125E-16));
#681=DIRECTION('center_axis',(1.,-2.96059473233375E-16,-2.62953635073671E-31));
#682=DIRECTION('ref_axis',(2.96059473233375E-16,1.,8.88178419700126E-16));
#683=DIRECTION('',(2.96059473233375E-16,1.,8.88178419700125E-16));
#684=DIRECTION('center_axis',(-1.,0.,0.));
#685=DIRECTION('ref_axis',(0.,0.,1.));
#686=DIRECTION('',(0.,-4.44089209850063E-16,1.));
#687=DIRECTION('',(0.,1.,-2.22044604925031E-16));
#688=DIRECTION('',(0.,-2.22044604925031E-16,1.));
#689=DIRECTION('',(0.,1.,1.77635683940025E-15));
#690=DIRECTION('center_axis',(0.,-1.,-4.44089209850063E-16));
#691=DIRECTION('ref_axis',(0.,4.44089209850063E-16,-1.));
#692=DIRECTION('',(0.,4.44089209850063E-16,-1.));
#693=DIRECTION('',(1.,0.,0.));
#694=DIRECTION('center_axis',(0.,2.22044604925031E-16,1.));
#695=DIRECTION('ref_axis',(0.,-1.,2.22044604925031E-16));
#696=DIRECTION('',(0.,-1.,2.22044604925031E-16));
#697=DIRECTION('center_axis',(0.,-1.,-2.22044604925031E-16));
#698=DIRECTION('ref_axis',(0.,2.22044604925031E-16,-1.));
#699=DIRECTION('',(0.,2.22044604925031E-16,-1.));
#700=DIRECTION('',(1.,0.,0.));
#701=DIRECTION('center_axis',(0.,-1.77635683940025E-15,1.));
#702=DIRECTION('ref_axis',(0.,-1.,-1.77635683940025E-15));
#703=DIRECTION('',(0.,-1.,-1.77635683940025E-15));
#704=DIRECTION('center_axis',(1.,0.,0.));
#705=DIRECTION('ref_axis',(0.,0.,-1.));
#706=CARTESIAN_POINT('',(0.,0.,0.));
#707=CARTESIAN_POINT('Origin',(2.22044604925031E-15,-109.455231422596,5.00000000000001));
#708=CARTESIAN_POINT('',(-10.,4.99999999999998,5.00000000000004));
#709=CARTESIAN_POINT('Origin',(2.22044604925031E-15,4.99999999999998,5.00000000000004));
#710=CARTESIAN_POINT('',(-10.,-5.00000000000005,5.00000000000004));
#711=CARTESIAN_POINT('',(-10.,-109.455231422596,5.00000000000001));
#712=CARTESIAN_POINT('',(2.22044604925031E-15,-5.00000000000005,15.));
#713=CARTESIAN_POINT('Origin',(2.22044604925031E-15,-5.00000000000005,5.00000000000004));
#714=CARTESIAN_POINT('Origin',(2.22044604925031E-15,-5.00000000000005,5.00000000000004));
#715=CARTESIAN_POINT('Origin',(0.,-15.,15.));
#716=CARTESIAN_POINT('',(45.,-5.00000000000005,15.));
#717=CARTESIAN_POINT('',(0.,-5.00000000000005,15.));
#718=CARTESIAN_POINT('',(45.,-15.,15.));
#719=CARTESIAN_POINT('',(45.,-15.,15.));
#720=CARTESIAN_POINT('',(-45.,-15.,15.));
#721=CARTESIAN_POINT('',(0.,-15.,15.));
#722=CARTESIAN_POINT('',(-45.,-5.00000000000005,15.));
#723=CARTESIAN_POINT('',(-45.,-15.,15.));
#724=CARTESIAN_POINT('',(0.,-5.00000000000005,15.));
#725=CARTESIAN_POINT('Origin',(0.,-5.00000000000005,15.));
#726=CARTESIAN_POINT('',(-45.,-5.00000000000004,-15.));
#727=CARTESIAN_POINT('',(45.,-5.00000000000004,-15.));
#728=CARTESIAN_POINT('',(0.,-5.00000000000004,-15.));
#729=CARTESIAN_POINT('',(45.,-5.00000000000005,25.));
#730=CARTESIAN_POINT('',(-45.,-5.00000000000005,25.));
#731=CARTESIAN_POINT('Origin',(-8.88178419700125E-15,24.9999999999999,-15.));
#732=CARTESIAN_POINT('',(-10.,25.,-25.));
#733=CARTESIAN_POINT('',(9.99999999999999,25.,-25.));
#734=CARTESIAN_POINT('Origin',(-8.88178419700125E-15,25.,-25.));
#735=CARTESIAN_POINT('',(-10.,24.9999999999999,-15.));
#736=CARTESIAN_POINT('',(-10.,24.9999999999999,-15.));
#737=CARTESIAN_POINT('',(9.99999999999999,24.9999999999999,-15.));
#738=CARTESIAN_POINT('Origin',(-8.88178419700125E-15,24.9999999999999,-15.));
#739=CARTESIAN_POINT('',(9.99999999999999,24.9999999999999,-15.));
#740=CARTESIAN_POINT('Origin',(10.,34.9999999999999,-15.));
#741=CARTESIAN_POINT('',(10.,35.,-25.));
#742=CARTESIAN_POINT('',(10.0000000000001,9.99999999999997,-25.));
#743=CARTESIAN_POINT('',(10.,34.9999999999999,-15.));
#744=CARTESIAN_POINT('',(10.,27.5,-15.));
#745=CARTESIAN_POINT('',(10.,35.,-20.));
#746=CARTESIAN_POINT('Origin',(-10.,24.9999999999999,-15.));
#747=CARTESIAN_POINT('',(-10.,35.,-25.));
#748=CARTESIAN_POINT('',(-10.0000000000001,4.99999999999997,-25.));
#749=CARTESIAN_POINT('',(-10.,34.9999999999999,-15.));
#750=CARTESIAN_POINT('',(-10.,35.,-20.));
#751=CARTESIAN_POINT('',(-10.,22.5,-15.));
#752=CARTESIAN_POINT('Origin',(0.,-15.,-25.));
#753=CARTESIAN_POINT('',(30.,35.,-25.));
#754=CARTESIAN_POINT('',(-30.,35.,-25.));
#755=CARTESIAN_POINT('',(30.,4.99999999999997,-25.));
#756=CARTESIAN_POINT('',(30.,35.,-25.));
#757=CARTESIAN_POINT('',(45.,4.99999999999997,-25.));
#758=CARTESIAN_POINT('',(0.,4.99999999999997,-25.));
#759=CARTESIAN_POINT('',(45.,-15.,-25.));
#760=CARTESIAN_POINT('',(45.,-15.,-25.));
#761=CARTESIAN_POINT('',(-45.,-15.,-25.));
#762=CARTESIAN_POINT('',(0.,-15.,-25.));
#763=CARTESIAN_POINT('',(-45.,4.99999999999997,-25.));
#764=CARTESIAN_POINT('',(-45.,-15.,-25.));
#765=CARTESIAN_POINT('',(-30.,4.99999999999997,-25.));
#766=CARTESIAN_POINT('',(0.,4.99999999999997,-25.));
#767=CARTESIAN_POINT('',(-30.,35.,-25.));
#768=CARTESIAN_POINT('',(-30.,4.99999999999997,-25.));
#769=CARTESIAN_POINT('',(-30.,35.,-25.));
#770=CARTESIAN_POINT('Origin',(30.,35.,-25.));
#771=CARTESIAN_POINT('',(20.,34.9999999999999,-15.));
#772=CARTESIAN_POINT('',(-30.,35.,-15.));
#773=CARTESIAN_POINT('',(30.,35.,-15.));
#774=CARTESIAN_POINT('',(-30.,35.,-15.));
#775=CARTESIAN_POINT('',(30.,35.,-25.));
#776=CARTESIAN_POINT('Origin',(20.,19.9999999999999,4.44089209850063E-15));
#777=CARTESIAN_POINT('',(20.,4.99999999999995,-15.));
#778=CARTESIAN_POINT('',(20.,20.,-15.));
#779=CARTESIAN_POINT('',(20.,4.99999999999994,25.));
#780=CARTESIAN_POINT('',(20.,4.99999999999997,-12.5));
#781=CARTESIAN_POINT('',(20.,15.,25.));
#782=CARTESIAN_POINT('',(20.,4.99999999999994,25.));
#783=CARTESIAN_POINT('',(20.,15.,25.));
#784=CARTESIAN_POINT('Origin',(30.,34.9999999999999,-15.));
#785=CARTESIAN_POINT('',(30.,15.,25.));
#786=CARTESIAN_POINT('',(30.,15.,25.));
#787=CARTESIAN_POINT('',(30.,15.,25.));
#788=CARTESIAN_POINT('Origin',(0.,4.99999999999997,-25.));
#789=CARTESIAN_POINT('',(-20.,4.99999999999995,-15.));
#790=CARTESIAN_POINT('',(0.,4.99999999999997,-15.));
#791=CARTESIAN_POINT('',(-20.,4.99999999999994,25.));
#792=CARTESIAN_POINT('',(-20.,4.99999999999997,-12.5));
#793=CARTESIAN_POINT('',(0.,4.99999999999996,25.));
#794=CARTESIAN_POINT('Origin',(0.,4.99999999999997,-25.));
#795=CARTESIAN_POINT('',(30.,4.99999999999994,25.));
#796=CARTESIAN_POINT('',(30.,4.99999999999997,-25.));
#797=CARTESIAN_POINT('',(45.,4.99999999999996,25.));
#798=CARTESIAN_POINT('',(0.,4.99999999999996,25.));
#799=CARTESIAN_POINT('',(45.,4.99999999999997,-25.));
#800=CARTESIAN_POINT('Origin',(-30.,34.9999999999999,-15.));
#801=CARTESIAN_POINT('',(-30.,15.,25.));
#802=CARTESIAN_POINT('',(-30.,35.,-15.));
#803=CARTESIAN_POINT('',(-30.,15.,25.));
#804=CARTESIAN_POINT('',(-20.,15.,25.));
#805=CARTESIAN_POINT('',(-30.,15.,25.));
#806=CARTESIAN_POINT('',(-20.,34.9999999999999,-15.));
#807=CARTESIAN_POINT('',(-20.,15.,25.));
#808=CARTESIAN_POINT('',(-30.,35.,-15.));
#809=CARTESIAN_POINT('Origin',(-20.,19.9999999999999,4.44089209850063E-15));
#810=CARTESIAN_POINT('',(-20.,20.,-15.));
#811=CARTESIAN_POINT('',(-20.,4.99999999999994,25.));
#812=CARTESIAN_POINT('Origin',(30.,35.,-25.));
#813=CARTESIAN_POINT('',(-30.,35.,-25.));
#814=CARTESIAN_POINT('',(-30.,35.,-15.));
#815=CARTESIAN_POINT('Origin',(0.,20.,-15.));
#816=CARTESIAN_POINT('Origin',(0.,4.99999999999997,-25.));
#817=CARTESIAN_POINT('',(-30.,4.99999999999994,25.));
#818=CARTESIAN_POINT('',(-30.,4.99999999999997,-25.));
#819=CARTESIAN_POINT('',(-45.,4.99999999999996,25.));
#820=CARTESIAN_POINT('',(-45.,4.99999999999997,-25.));
#821=CARTESIAN_POINT('',(0.,4.99999999999996,25.));
#822=CARTESIAN_POINT('Origin',(-30.,35.,-25.));
#823=CARTESIAN_POINT('',(-30.,4.99999999999994,25.));
#824=CARTESIAN_POINT('Origin',(30.,4.99999999999997,-25.));
#825=CARTESIAN_POINT('',(30.,4.99999999999994,25.));
#826=CARTESIAN_POINT('Origin',(-45.,-5.00000000000004,0.));
#827=CARTESIAN_POINT('',(-45.,-15.,-15.));
#828=CARTESIAN_POINT('',(-45.,-15.,-15.));
#829=CARTESIAN_POINT('',(-45.,-5.00000000000004,-15.));
#830=CARTESIAN_POINT('',(-45.,-15.,25.));
#831=CARTESIAN_POINT('',(-45.,-15.,25.));
#832=CARTESIAN_POINT('',(-45.,4.99999999999996,25.));
#833=CARTESIAN_POINT('Origin',(0.,-15.,-15.));
#834=CARTESIAN_POINT('',(45.,-15.,-15.));
#835=CARTESIAN_POINT('',(45.,-15.,-15.));
#836=CARTESIAN_POINT('',(0.,-15.,-15.));
#837=CARTESIAN_POINT('Origin',(0.,-5.00000000000004,-15.));
#838=CARTESIAN_POINT('',(45.,-5.00000000000004,-15.));
#839=CARTESIAN_POINT('Origin',(0.,-15.,25.));
#840=CARTESIAN_POINT('',(45.,-15.,25.));
#841=CARTESIAN_POINT('',(45.,-15.,25.));
#842=CARTESIAN_POINT('',(0.,-15.,25.));
#843=CARTESIAN_POINT('Origin',(0.,4.99999999999996,25.));
#844=CARTESIAN_POINT('',(45.,4.99999999999996,25.));
#845=CARTESIAN_POINT('Origin',(45.,-5.00000000000004,0.));
#846=UNCERTAINTY_MEASURE_WITH_UNIT(LENGTH_MEASURE(0.01),#850,
'DISTANCE_ACCURACY_VALUE',
'Maximum model space distance between geometric entities at asserted c
onnectivities');
#847=UNCERTAINTY_MEASURE_WITH_UNIT(LENGTH_MEASURE(0.01),#850,
'DISTANCE_ACCURACY_VALUE',
'Maximum model space distance between geometric entities at asserted c
onnectivities');
#848=(
GEOMETRIC_REPRESENTATION_CONTEXT(3)
GLOBAL_UNCERTAINTY_ASSIGNED_CONTEXT((#846))
GLOBAL_UNIT_ASSIGNED_CONTEXT((#850,#852,#853))
REPRESENTATION_CONTEXT('','3D')
);
#849=(
GEOMETRIC_REPRESENTATION_CONTEXT(3)
GLOBAL_UNCERTAINTY_ASSIGNED_CONTEXT((#847))
GLOBAL_UNIT_ASSIGNED_CONTEXT((#850,#852,#853))
REPRESENTATION_CONTEXT('','3D')
);
#850=(
LENGTH_UNIT()
NAMED_UNIT(*)
SI_UNIT(.MILLI.,.METRE.)
);
#851=(
LENGTH_UNIT()
NAMED_UNIT(*)
SI_UNIT(.CENTI.,.METRE.)
);
#852=(
NAMED_UNIT(*)
PLANE_ANGLE_UNIT()
SI_UNIT($,.RADIAN.)
);
#853=(
NAMED_UNIT(*)
SI_UNIT($,.STERADIAN.)
SOLID_ANGLE_UNIT()
);
#854=SHAPE_DEFINITION_REPRESENTATION(#855,#856);
#855=PRODUCT_DEFINITION_SHAPE('',$,#858);
#856=SHAPE_REPRESENTATION('',(#549),#848);
#857=PRODUCT_DEFINITION_CONTEXT('part definition',#862,'design');
#858=PRODUCT_DEFINITION('s14-12','s14-12',#859,#857);
#859=PRODUCT_DEFINITION_FORMATION('',$,#864);
#860=PRODUCT_RELATED_PRODUCT_CATEGORY('s14-12','s14-12',(#864));
#861=APPLICATION_PROTOCOL_DEFINITION('international standard',
'automotive_design',2009,#862);
#862=APPLICATION_CONTEXT(
'Core Data for Automotive Mechanical Design Process');
#863=PRODUCT_CONTEXT('part definition',#862,'mechanical');
#864=PRODUCT('s14-12','s14-12',$,(#863));
#865=PRESENTATION_STYLE_ASSIGNMENT((#868));
#866=PRESENTATION_STYLE_ASSIGNMENT((#869));
#867=PRESENTATION_STYLE_ASSIGNMENT((#870));
#868=SURFACE_STYLE_USAGE(.BOTH.,#877);
#869=SURFACE_STYLE_USAGE(.BOTH.,#878);
#870=SURFACE_STYLE_USAGE(.BOTH.,#879);
#871=SURFACE_STYLE_RENDERING_WITH_PROPERTIES($,#889,(#874));
#872=SURFACE_STYLE_RENDERING_WITH_PROPERTIES($,#890,(#875));
#873=SURFACE_STYLE_RENDERING_WITH_PROPERTIES($,#891,(#876));
#874=SURFACE_STYLE_TRANSPARENT(0.);
#875=SURFACE_STYLE_TRANSPARENT(0.);
#876=SURFACE_STYLE_TRANSPARENT(0.);
#877=SURFACE_SIDE_STYLE('',(#880,#871));
#878=SURFACE_SIDE_STYLE('',(#881,#872));
#879=SURFACE_SIDE_STYLE('',(#882,#873));
#880=SURFACE_STYLE_FILL_AREA(#883);
#881=SURFACE_STYLE_FILL_AREA(#884);
#882=SURFACE_STYLE_FILL_AREA(#885);
#883=FILL_AREA_STYLE('',(#886));
#884=FILL_AREA_STYLE('',(#887));
#885=FILL_AREA_STYLE('',(#888));
#886=FILL_AREA_STYLE_COLOUR('',#889);
#887=FILL_AREA_STYLE_COLOUR('',#890);
#888=FILL_AREA_STYLE_COLOUR('',#891);
#889=COLOUR_RGB('',0.749019607843137,0.749019607843137,0.749019607843137);
#890=COLOUR_RGB('',0.745098039215686,0.737254901960784,0.729411764705882);
#891=COLOUR_RGB('',0.733333333333333,0.819607843137255,0.854901960784314);
ENDSEC;
END-ISO-10303-21;
