ISO-10303-21;
HEADER;
/* Generated by software containing ST-Developer
 * from STEP Tools, Inc. (www.steptools.com) 
 */

FILE_DESCRIPTION(
/* description */ (''),
/* implementation_level */ '2;1');

FILE_NAME(
/* name */ 's14-13.stp',
/* time_stamp */ '2026-04-25T22:16:20+03:00',
/* author */ ('DuctopwH'),
/* organization */ (''),
/* preprocessor_version */ 'ST-DEVELOPER v19.2',
/* originating_system */ 'Autodesk Inventor 2024',
/* authorisation */ '');

FILE_SCHEMA (('AUTOMOTIVE_DESIGN { 1 0 10303 214 3 1 1 }'));
ENDSEC;

DATA;
#10=MECHANICAL_DESIGN_GEOMETRIC_PRESENTATION_REPRESENTATION('',(#13),#402);
#11=SHAPE_REPRESENTATION_RELATIONSHIP('SRR','None',#409,#12);
#12=ADVANCED_BREP_SHAPE_REPRESENTATION('',(#14),#401);
#13=STYLED_ITEM('',(#418),#14);
#14=MANIFOLD_SOLID_BREP('Solid1',#207);
#15=CONICAL_SURFACE('',#255,5.75,0.785398163397447);
#16=CONICAL_SURFACE('',#260,3.625,0.785398163397446);
#17=LINE('',#357,#23);
#18=LINE('',#371,#24);
#19=LINE('',#387,#25);
#20=LINE('',#391,#26);
#21=LINE('',#393,#27);
#22=LINE('',#397,#28);
#23=VECTOR('',#286,3.375);
#24=VECTOR('',#303,7.5);
#25=VECTOR('',#324,5.75);
#26=VECTOR('',#329,6.);
#27=VECTOR('',#332,3.625);
#28=VECTOR('',#337,5.75);
#29=CYLINDRICAL_SURFACE('',#237,3.375);
#30=CYLINDRICAL_SURFACE('',#245,7.5);
#31=CYLINDRICAL_SURFACE('',#258,6.);
#32=CYLINDRICAL_SURFACE('',#261,5.75);
#33=FACE_BOUND('',#56,.T.);
#34=FACE_BOUND('',#61,.T.);
#35=FACE_BOUND('',#64,.T.);
#36=FACE_BOUND('',#70,.T.);
#37=PLANE('',#235);
#38=PLANE('',#248);
#39=PLANE('',#253);
#40=PLANE('',#263);
#41=FACE_OUTER_BOUND('',#54,.T.);
#42=FACE_OUTER_BOUND('',#55,.T.);
#43=FACE_OUTER_BOUND('',#57,.T.);
#44=FACE_OUTER_BOUND('',#58,.T.);
#45=FACE_OUTER_BOUND('',#59,.T.);
#46=FACE_OUTER_BOUND('',#60,.T.);
#47=FACE_OUTER_BOUND('',#62,.T.);
#48=FACE_OUTER_BOUND('',#63,.T.);
#49=FACE_OUTER_BOUND('',#65,.T.);
#50=FACE_OUTER_BOUND('',#66,.T.);
#51=FACE_OUTER_BOUND('',#67,.T.);
#52=FACE_OUTER_BOUND('',#68,.T.);
#53=FACE_OUTER_BOUND('',#69,.T.);
#54=EDGE_LOOP('',(#137,#138,#139,#140,#141));
#55=EDGE_LOOP('',(#142));
#56=EDGE_LOOP('',(#143));
#57=EDGE_LOOP('',(#144,#145,#146,#147,#148,#149));
#58=EDGE_LOOP('',(#150,#151,#152,#153,#154));
#59=EDGE_LOOP('',(#155,#156,#157,#158,#159,#160));
#60=EDGE_LOOP('',(#161));
#61=EDGE_LOOP('',(#162));
#62=EDGE_LOOP('',(#163,#164,#165,#166,#167));
#63=EDGE_LOOP('',(#168));
#64=EDGE_LOOP('',(#169));
#65=EDGE_LOOP('',(#170,#171,#172,#173,#174));
#66=EDGE_LOOP('',(#175,#176,#177,#178,#179));
#67=EDGE_LOOP('',(#180,#181,#182,#183,#184));
#68=EDGE_LOOP('',(#185,#186,#187,#188));
#69=EDGE_LOOP('',(#189));
#70=EDGE_LOOP('',(#190));
#71=CIRCLE('',#231,3.475);
#72=CIRCLE('',#232,0.1);
#73=CIRCLE('',#233,3.375);
#74=CIRCLE('',#234,3.375);
#75=CIRCLE('',#236,5.5);
#76=CIRCLE('',#238,3.375);
#77=CIRCLE('',#239,3.375);
#78=CIRCLE('',#241,7.5);
#79=CIRCLE('',#242,0.1);
#80=CIRCLE('',#243,7.4);
#81=CIRCLE('',#244,7.5);
#82=CIRCLE('',#246,7.5);
#83=CIRCLE('',#247,7.5);
#84=CIRCLE('',#249,5.75);
#85=CIRCLE('',#251,7.4);
#86=CIRCLE('',#252,0.1);
#87=CIRCLE('',#254,3.875);
#88=CIRCLE('',#256,6.);
#89=CIRCLE('',#257,6.);
#90=CIRCLE('',#259,6.);
#91=CIRCLE('',#262,5.75);
#92=VERTEX_POINT('',#342);
#93=VERTEX_POINT('',#344);
#94=VERTEX_POINT('',#346);
#95=VERTEX_POINT('',#350);
#96=VERTEX_POINT('',#353);
#97=VERTEX_POINT('',#354);
#98=VERTEX_POINT('',#359);
#99=VERTEX_POINT('',#360);
#100=VERTEX_POINT('',#362);
#101=VERTEX_POINT('',#367);
#102=VERTEX_POINT('',#368);
#103=VERTEX_POINT('',#373);
#104=VERTEX_POINT('',#376);
#105=VERTEX_POINT('',#380);
#106=VERTEX_POINT('',#383);
#107=VERTEX_POINT('',#384);
#108=VERTEX_POINT('',#389);
#109=VERTEX_POINT('',#395);
#110=EDGE_CURVE('',#92,#92,#71,.T.);
#111=EDGE_CURVE('',#92,#93,#72,.T.);
#112=EDGE_CURVE('',#93,#94,#73,.T.);
#113=EDGE_CURVE('',#94,#93,#74,.T.);
#114=EDGE_CURVE('',#95,#95,#75,.T.);
#115=EDGE_CURVE('',#96,#97,#76,.T.);
#116=EDGE_CURVE('',#97,#96,#77,.T.);
#117=EDGE_CURVE('',#97,#94,#17,.T.);
#118=EDGE_CURVE('',#98,#99,#78,.T.);
#119=EDGE_CURVE('',#99,#100,#79,.T.);
#120=EDGE_CURVE('',#100,#100,#80,.T.);
#121=EDGE_CURVE('',#99,#98,#81,.T.);
#122=EDGE_CURVE('',#101,#102,#82,.T.);
#123=EDGE_CURVE('',#102,#101,#83,.T.);
#124=EDGE_CURVE('',#102,#98,#18,.T.);
#125=EDGE_CURVE('',#103,#103,#84,.T.);
#126=EDGE_CURVE('',#104,#104,#85,.T.);
#127=EDGE_CURVE('',#104,#101,#86,.T.);
#128=EDGE_CURVE('',#105,#105,#87,.T.);
#129=EDGE_CURVE('',#106,#107,#88,.T.);
#130=EDGE_CURVE('',#107,#106,#89,.T.);
#131=EDGE_CURVE('',#106,#95,#19,.T.);
#132=EDGE_CURVE('',#108,#108,#90,.T.);
#133=EDGE_CURVE('',#108,#107,#20,.T.);
#134=EDGE_CURVE('',#105,#96,#21,.T.);
#135=EDGE_CURVE('',#109,#109,#91,.T.);
#136=EDGE_CURVE('',#109,#103,#22,.T.);
#137=ORIENTED_EDGE('',*,*,#110,.T.);
#138=ORIENTED_EDGE('',*,*,#111,.T.);
#139=ORIENTED_EDGE('',*,*,#112,.T.);
#140=ORIENTED_EDGE('',*,*,#113,.T.);
#141=ORIENTED_EDGE('',*,*,#111,.F.);
#142=ORIENTED_EDGE('',*,*,#114,.F.);
#143=ORIENTED_EDGE('',*,*,#110,.F.);
#144=ORIENTED_EDGE('',*,*,#115,.F.);
#145=ORIENTED_EDGE('',*,*,#116,.F.);
#146=ORIENTED_EDGE('',*,*,#117,.T.);
#147=ORIENTED_EDGE('',*,*,#112,.F.);
#148=ORIENTED_EDGE('',*,*,#113,.F.);
#149=ORIENTED_EDGE('',*,*,#117,.F.);
#150=ORIENTED_EDGE('',*,*,#118,.T.);
#151=ORIENTED_EDGE('',*,*,#119,.T.);
#152=ORIENTED_EDGE('',*,*,#120,.T.);
#153=ORIENTED_EDGE('',*,*,#119,.F.);
#154=ORIENTED_EDGE('',*,*,#121,.T.);
#155=ORIENTED_EDGE('',*,*,#122,.F.);
#156=ORIENTED_EDGE('',*,*,#123,.F.);
#157=ORIENTED_EDGE('',*,*,#124,.T.);
#158=ORIENTED_EDGE('',*,*,#121,.F.);
#159=ORIENTED_EDGE('',*,*,#118,.F.);
#160=ORIENTED_EDGE('',*,*,#124,.F.);
#161=ORIENTED_EDGE('',*,*,#120,.F.);
#162=ORIENTED_EDGE('',*,*,#125,.T.);
#163=ORIENTED_EDGE('',*,*,#126,.T.);
#164=ORIENTED_EDGE('',*,*,#127,.T.);
#165=ORIENTED_EDGE('',*,*,#122,.T.);
#166=ORIENTED_EDGE('',*,*,#123,.T.);
#167=ORIENTED_EDGE('',*,*,#127,.F.);
#168=ORIENTED_EDGE('',*,*,#126,.F.);
#169=ORIENTED_EDGE('',*,*,#128,.F.);
#170=ORIENTED_EDGE('',*,*,#129,.T.);
#171=ORIENTED_EDGE('',*,*,#130,.T.);
#172=ORIENTED_EDGE('',*,*,#131,.T.);
#173=ORIENTED_EDGE('',*,*,#114,.T.);
#174=ORIENTED_EDGE('',*,*,#131,.F.);
#175=ORIENTED_EDGE('',*,*,#132,.T.);
#176=ORIENTED_EDGE('',*,*,#133,.T.);
#177=ORIENTED_EDGE('',*,*,#129,.F.);
#178=ORIENTED_EDGE('',*,*,#130,.F.);
#179=ORIENTED_EDGE('',*,*,#133,.F.);
#180=ORIENTED_EDGE('',*,*,#128,.T.);
#181=ORIENTED_EDGE('',*,*,#134,.T.);
#182=ORIENTED_EDGE('',*,*,#115,.T.);
#183=ORIENTED_EDGE('',*,*,#116,.T.);
#184=ORIENTED_EDGE('',*,*,#134,.F.);
#185=ORIENTED_EDGE('',*,*,#135,.T.);
#186=ORIENTED_EDGE('',*,*,#136,.T.);
#187=ORIENTED_EDGE('',*,*,#125,.F.);
#188=ORIENTED_EDGE('',*,*,#136,.F.);
#189=ORIENTED_EDGE('',*,*,#132,.F.);
#190=ORIENTED_EDGE('',*,*,#135,.F.);
#191=TOROIDAL_SURFACE('',#230,3.475,0.1);
#192=TOROIDAL_SURFACE('',#240,7.4,0.1);
#193=TOROIDAL_SURFACE('',#250,7.4,0.1);
#194=ADVANCED_FACE('',(#41),#191,.T.);
#195=ADVANCED_FACE('',(#42,#33),#37,.T.);
#196=ADVANCED_FACE('',(#43),#29,.F.);
#197=ADVANCED_FACE('',(#44),#192,.T.);
#198=ADVANCED_FACE('',(#45),#30,.T.);
#199=ADVANCED_FACE('',(#46,#34),#38,.T.);
#200=ADVANCED_FACE('',(#47),#193,.T.);
#201=ADVANCED_FACE('',(#48,#35),#39,.T.);
#202=ADVANCED_FACE('',(#49),#15,.T.);
#203=ADVANCED_FACE('',(#50),#31,.T.);
#204=ADVANCED_FACE('',(#51),#16,.F.);
#205=ADVANCED_FACE('',(#52),#32,.T.);
#206=ADVANCED_FACE('',(#53,#36),#40,.F.);
#207=CLOSED_SHELL('',(#194,#195,#196,#197,#198,#199,#200,#201,#202,#203,
#204,#205,#206));
#208=DERIVED_UNIT_ELEMENT(#211,1.);
#209=DERIVED_UNIT_ELEMENT(#404,-3.);
#210=DIMENSIONAL_EXPONENTS(0.,1.,0.,0.,0.,0.,0.);
#211=(
CONVERSION_BASED_UNIT('gram',#213)
MASS_UNIT()
NAMED_UNIT(#210)
);
#212=(
MASS_UNIT()
NAMED_UNIT(*)
SI_UNIT(.KILO.,.GRAM.)
);
#213=MASS_MEASURE_WITH_UNIT(MASS_MEASURE(0.001),#212);
#214=DERIVED_UNIT((#208,#209));
#215=MEASURE_REPRESENTATION_ITEM('density measure',
POSITIVE_RATIO_MEASURE(7.85),#214);
#216=PROPERTY_DEFINITION_REPRESENTATION(#221,#218);
#217=PROPERTY_DEFINITION_REPRESENTATION(#222,#219);
#218=REPRESENTATION('material name',(#220),#401);
#219=REPRESENTATION('density',(#215),#401);
#220=DESCRIPTIVE_REPRESENTATION_ITEM('Steel, Carbon','Steel, Carbon');
#221=PROPERTY_DEFINITION('material property','material name',#411);
#222=PROPERTY_DEFINITION('material property','density of part',#411);
#223=DATE_TIME_ROLE('creation_date');
#224=APPLIED_DATE_AND_TIME_ASSIGNMENT(#225,#223,(#411));
#225=DATE_AND_TIME(#226,#227);
#226=CALENDAR_DATE(2026,25,4);
#227=LOCAL_TIME(0,0,0.,#228);
#228=COORDINATED_UNIVERSAL_TIME_OFFSET(0,0,.BEHIND.);
#229=AXIS2_PLACEMENT_3D('',#340,#264,#265);
#230=AXIS2_PLACEMENT_3D('',#341,#266,#267);
#231=AXIS2_PLACEMENT_3D('',#343,#268,#269);
#232=AXIS2_PLACEMENT_3D('',#345,#270,#271);
#233=AXIS2_PLACEMENT_3D('',#347,#272,#273);
#234=AXIS2_PLACEMENT_3D('',#348,#274,#275);
#235=AXIS2_PLACEMENT_3D('',#349,#276,#277);
#236=AXIS2_PLACEMENT_3D('',#351,#278,#279);
#237=AXIS2_PLACEMENT_3D('',#352,#280,#281);
#238=AXIS2_PLACEMENT_3D('',#355,#282,#283);
#239=AXIS2_PLACEMENT_3D('',#356,#284,#285);
#240=AXIS2_PLACEMENT_3D('',#358,#287,#288);
#241=AXIS2_PLACEMENT_3D('',#361,#289,#290);
#242=AXIS2_PLACEMENT_3D('',#363,#291,#292);
#243=AXIS2_PLACEMENT_3D('',#364,#293,#294);
#244=AXIS2_PLACEMENT_3D('',#365,#295,#296);
#245=AXIS2_PLACEMENT_3D('',#366,#297,#298);
#246=AXIS2_PLACEMENT_3D('',#369,#299,#300);
#247=AXIS2_PLACEMENT_3D('',#370,#301,#302);
#248=AXIS2_PLACEMENT_3D('',#372,#304,#305);
#249=AXIS2_PLACEMENT_3D('',#374,#306,#307);
#250=AXIS2_PLACEMENT_3D('',#375,#308,#309);
#251=AXIS2_PLACEMENT_3D('',#377,#310,#311);
#252=AXIS2_PLACEMENT_3D('',#378,#312,#313);
#253=AXIS2_PLACEMENT_3D('',#379,#314,#315);
#254=AXIS2_PLACEMENT_3D('',#381,#316,#317);
#255=AXIS2_PLACEMENT_3D('',#382,#318,#319);
#256=AXIS2_PLACEMENT_3D('',#385,#320,#321);
#257=AXIS2_PLACEMENT_3D('',#386,#322,#323);
#258=AXIS2_PLACEMENT_3D('',#388,#325,#326);
#259=AXIS2_PLACEMENT_3D('',#390,#327,#328);
#260=AXIS2_PLACEMENT_3D('',#392,#330,#331);
#261=AXIS2_PLACEMENT_3D('',#394,#333,#334);
#262=AXIS2_PLACEMENT_3D('',#396,#335,#336);
#263=AXIS2_PLACEMENT_3D('',#398,#338,#339);
#264=DIRECTION('axis',(0.,0.,1.));
#265=DIRECTION('refdir',(1.,0.,0.));
#266=DIRECTION('center_axis',(0.,1.,0.));
#267=DIRECTION('ref_axis',(0.,0.,1.));
#268=DIRECTION('center_axis',(0.,-1.,0.));
#269=DIRECTION('ref_axis',(1.,0.,0.));
#270=DIRECTION('center_axis',(-1.,0.,1.22464679914735E-16));
#271=DIRECTION('ref_axis',(-1.22464679914735E-16,0.,-1.));
#272=DIRECTION('center_axis',(0.,1.,0.));
#273=DIRECTION('ref_axis',(1.,0.,0.));
#274=DIRECTION('center_axis',(0.,1.,0.));
#275=DIRECTION('ref_axis',(1.,0.,0.));
#276=DIRECTION('center_axis',(0.,-1.,0.));
#277=DIRECTION('ref_axis',(0.,0.,-1.));
#278=DIRECTION('center_axis',(0.,1.,0.));
#279=DIRECTION('ref_axis',(1.,0.,0.));
#280=DIRECTION('center_axis',(0.,1.,0.));
#281=DIRECTION('ref_axis',(1.,0.,0.));
#282=DIRECTION('center_axis',(0.,-1.,0.));
#283=DIRECTION('ref_axis',(-1.,0.,0.));
#284=DIRECTION('center_axis',(0.,-1.,0.));
#285=DIRECTION('ref_axis',(-1.,0.,0.));
#286=DIRECTION('',(0.,-1.,0.));
#287=DIRECTION('center_axis',(0.,1.,0.));
#288=DIRECTION('ref_axis',(0.,0.,1.));
#289=DIRECTION('center_axis',(0.,-1.,0.));
#290=DIRECTION('ref_axis',(1.,0.,0.));
#291=DIRECTION('center_axis',(-1.,0.,1.22464679914735E-16));
#292=DIRECTION('ref_axis',(-1.22464679914735E-16,0.,-1.));
#293=DIRECTION('center_axis',(0.,1.,0.));
#294=DIRECTION('ref_axis',(1.,0.,0.));
#295=DIRECTION('center_axis',(0.,-1.,0.));
#296=DIRECTION('ref_axis',(1.,0.,0.));
#297=DIRECTION('center_axis',(0.,1.,0.));
#298=DIRECTION('ref_axis',(-1.,0.,0.));
#299=DIRECTION('center_axis',(0.,1.,0.));
#300=DIRECTION('ref_axis',(1.,0.,0.));
#301=DIRECTION('center_axis',(0.,1.,0.));
#302=DIRECTION('ref_axis',(1.,0.,0.));
#303=DIRECTION('',(0.,-1.,0.));
#304=DIRECTION('center_axis',(0.,-1.,0.));
#305=DIRECTION('ref_axis',(0.,0.,-1.));
#306=DIRECTION('center_axis',(0.,1.,0.));
#307=DIRECTION('ref_axis',(1.,0.,0.));
#308=DIRECTION('center_axis',(0.,1.,0.));
#309=DIRECTION('ref_axis',(0.,0.,1.));
#310=DIRECTION('center_axis',(0.,-1.,0.));
#311=DIRECTION('ref_axis',(1.,0.,0.));
#312=DIRECTION('center_axis',(-1.,0.,1.22464679914735E-16));
#313=DIRECTION('ref_axis',(-1.22464679914735E-16,0.,-1.));
#314=DIRECTION('center_axis',(0.,1.,0.));
#315=DIRECTION('ref_axis',(0.,0.,1.));
#316=DIRECTION('center_axis',(0.,1.,0.));
#317=DIRECTION('ref_axis',(-1.,0.,0.));
#318=DIRECTION('center_axis',(0.,1.,0.));
#319=DIRECTION('ref_axis',(1.,0.,0.));
#320=DIRECTION('center_axis',(0.,-1.,0.));
#321=DIRECTION('ref_axis',(1.,0.,0.));
#322=DIRECTION('center_axis',(0.,-1.,0.));
#323=DIRECTION('ref_axis',(1.,0.,0.));
#324=DIRECTION('',(0.707106781186547,-0.707106781186548,-8.65956056235493E-17));
#325=DIRECTION('center_axis',(0.,1.,0.));
#326=DIRECTION('ref_axis',(-1.,0.,0.));
#327=DIRECTION('center_axis',(0.,-1.,0.));
#328=DIRECTION('ref_axis',(-1.,0.,0.));
#329=DIRECTION('',(0.,-1.,0.));
#330=DIRECTION('center_axis',(0.,1.,0.));
#331=DIRECTION('ref_axis',(-1.,0.,0.));
#332=DIRECTION('',(-0.707106781186546,-0.707106781186549,8.65956056235491E-17));
#333=DIRECTION('center_axis',(0.,1.,0.));
#334=DIRECTION('ref_axis',(-1.,0.,0.));
#335=DIRECTION('center_axis',(0.,1.,0.));
#336=DIRECTION('ref_axis',(1.,0.,0.));
#337=DIRECTION('',(0.,1.,0.));
#338=DIRECTION('center_axis',(0.,-1.,0.));
#339=DIRECTION('ref_axis',(0.,0.,-1.));
#340=CARTESIAN_POINT('',(0.,0.,0.));
#341=CARTESIAN_POINT('Origin',(0.,0.099999999999999,0.));
#342=CARTESIAN_POINT('',(-4.25564762703705E-16,-7.28583859910259E-16,-3.475));
#343=CARTESIAN_POINT('Origin',(0.,-7.28583859910259E-16,0.));
#344=CARTESIAN_POINT('',(-4.13318294712232E-16,0.099999999999999,-3.375));
#345=CARTESIAN_POINT('Origin',(-4.25564762703705E-16,0.099999999999999,
-3.475));
#346=CARTESIAN_POINT('',(-3.375,0.099999999999999,4.13318294712232E-16));
#347=CARTESIAN_POINT('Origin',(0.,0.099999999999999,0.));
#348=CARTESIAN_POINT('Origin',(0.,0.099999999999999,0.));
#349=CARTESIAN_POINT('Origin',(-6.,-7.34788079488412E-16,0.));
#350=CARTESIAN_POINT('',(-5.5,-7.63278329429795E-16,6.73555739531044E-16));
#351=CARTESIAN_POINT('Origin',(0.,-7.63278329429795E-16,0.));
#352=CARTESIAN_POINT('Origin',(0.,-9.82085548648711,0.));
#353=CARTESIAN_POINT('',(3.375,17.5,4.13318294712232E-16));
#354=CARTESIAN_POINT('',(-3.375,17.5,4.13318294712232E-16));
#355=CARTESIAN_POINT('Origin',(0.,17.5,0.));
#356=CARTESIAN_POINT('Origin',(0.,17.5,0.));
#357=CARTESIAN_POINT('',(-3.375,-9.82085548648711,4.13318294712232E-16));
#358=CARTESIAN_POINT('Origin',(0.,16.1,0.));
#359=CARTESIAN_POINT('',(7.5,16.1,-9.18485099360515E-16));
#360=CARTESIAN_POINT('',(-9.18485099360515E-16,16.1,-7.5));
#361=CARTESIAN_POINT('Origin',(0.,16.1,0.));
#362=CARTESIAN_POINT('',(-9.06238631369041E-16,16.,-7.4));
#363=CARTESIAN_POINT('Origin',(-9.06238631369041E-16,16.1,-7.4));
#364=CARTESIAN_POINT('Origin',(0.,16.,0.));
#365=CARTESIAN_POINT('Origin',(0.,16.1,0.));
#366=CARTESIAN_POINT('Origin',(0.,17.,0.));
#367=CARTESIAN_POINT('',(-9.18485099360515E-16,17.9,-7.5));
#368=CARTESIAN_POINT('',(7.5,17.9,-9.18485099360515E-16));
#369=CARTESIAN_POINT('Origin',(0.,17.9,0.));
#370=CARTESIAN_POINT('Origin',(0.,17.9,0.));
#371=CARTESIAN_POINT('',(7.5,17.,-9.18485099360515E-16));
#372=CARTESIAN_POINT('Origin',(-7.5,16.,0.));
#373=CARTESIAN_POINT('',(5.75,16.,-7.04171909509728E-16));
#374=CARTESIAN_POINT('Origin',(0.,16.,0.));
#375=CARTESIAN_POINT('Origin',(0.,17.9,0.));
#376=CARTESIAN_POINT('',(-9.06238631369041E-16,18.,-7.4));
#377=CARTESIAN_POINT('Origin',(0.,18.,0.));
#378=CARTESIAN_POINT('Origin',(-9.06238631369041E-16,17.9,-7.4));
#379=CARTESIAN_POINT('Origin',(0.,18.,0.));
#380=CARTESIAN_POINT('',(3.875,18.,-4.74550634669599E-16));
#381=CARTESIAN_POINT('Origin',(0.,18.,0.));
#382=CARTESIAN_POINT('Origin',(0.,0.25,0.));
#383=CARTESIAN_POINT('',(-6.,0.5,-7.34788079488412E-16));
#384=CARTESIAN_POINT('',(6.,0.5,-7.34788079488412E-16));
#385=CARTESIAN_POINT('Origin',(0.,0.5,0.));
#386=CARTESIAN_POINT('Origin',(0.,0.5,0.));
#387=CARTESIAN_POINT('',(-5.75,0.25,7.04171909509728E-16));
#388=CARTESIAN_POINT('Origin',(0.,8.,0.));
#389=CARTESIAN_POINT('',(6.,14.5,-7.34788079488412E-16));
#390=CARTESIAN_POINT('Origin',(0.,14.5,0.));
#391=CARTESIAN_POINT('',(6.,8.,-7.34788079488412E-16));
#392=CARTESIAN_POINT('Origin',(0.,17.75,0.));
#393=CARTESIAN_POINT('',(3.625,17.75,-4.43934464690916E-16));
#394=CARTESIAN_POINT('Origin',(0.,15.25,0.));
#395=CARTESIAN_POINT('',(5.75,14.5,-7.04171909509728E-16));
#396=CARTESIAN_POINT('Origin',(0.,14.5,0.));
#397=CARTESIAN_POINT('',(5.75,15.25,-7.04171909509728E-16));
#398=CARTESIAN_POINT('Origin',(-6.,14.5,0.));
#399=UNCERTAINTY_MEASURE_WITH_UNIT(LENGTH_MEASURE(0.01),#403,
'DISTANCE_ACCURACY_VALUE',
'Maximum model space distance between geometric entities at asserted c
onnectivities');
#400=UNCERTAINTY_MEASURE_WITH_UNIT(LENGTH_MEASURE(0.01),#403,
'DISTANCE_ACCURACY_VALUE',
'Maximum model space distance between geometric entities at asserted c
onnectivities');
#401=(
GEOMETRIC_REPRESENTATION_CONTEXT(3)
GLOBAL_UNCERTAINTY_ASSIGNED_CONTEXT((#399))
GLOBAL_UNIT_ASSIGNED_CONTEXT((#403,#405,#406))
REPRESENTATION_CONTEXT('','3D')
);
#402=(
GEOMETRIC_REPRESENTATION_CONTEXT(3)
GLOBAL_UNCERTAINTY_ASSIGNED_CONTEXT((#400))
GLOBAL_UNIT_ASSIGNED_CONTEXT((#403,#405,#406))
REPRESENTATION_CONTEXT('','3D')
);
#403=(
LENGTH_UNIT()
NAMED_UNIT(*)
SI_UNIT(.MILLI.,.METRE.)
);
#404=(
LENGTH_UNIT()
NAMED_UNIT(*)
SI_UNIT(.CENTI.,.METRE.)
);
#405=(
NAMED_UNIT(*)
PLANE_ANGLE_UNIT()
SI_UNIT($,.RADIAN.)
);
#406=(
NAMED_UNIT(*)
SI_UNIT($,.STERADIAN.)
SOLID_ANGLE_UNIT()
);
#407=SHAPE_DEFINITION_REPRESENTATION(#408,#409);
#408=PRODUCT_DEFINITION_SHAPE('',$,#411);
#409=SHAPE_REPRESENTATION('',(#229),#401);
#410=PRODUCT_DEFINITION_CONTEXT('part definition',#415,'design');
#411=PRODUCT_DEFINITION('s14-13','s14-13',#412,#410);
#412=PRODUCT_DEFINITION_FORMATION('',$,#417);
#413=PRODUCT_RELATED_PRODUCT_CATEGORY('s14-13','s14-13',(#417));
#414=APPLICATION_PROTOCOL_DEFINITION('international standard',
'automotive_design',2009,#415);
#415=APPLICATION_CONTEXT(
'Core Data for Automotive Mechanical Design Process');
#416=PRODUCT_CONTEXT('part definition',#415,'mechanical');
#417=PRODUCT('s14-13','s14-13',$,(#416));
#418=PRESENTATION_STYLE_ASSIGNMENT((#419));
#419=SURFACE_STYLE_USAGE(.BOTH.,#422);
#420=SURFACE_STYLE_RENDERING_WITH_PROPERTIES($,#426,(#421));
#421=SURFACE_STYLE_TRANSPARENT(0.);
#422=SURFACE_SIDE_STYLE('',(#423,#420));
#423=SURFACE_STYLE_FILL_AREA(#424);
#424=FILL_AREA_STYLE('',(#425));
#425=FILL_AREA_STYLE_COLOUR('',#426);
#426=COLOUR_RGB('',0.745098039215686,0.737254901960784,0.729411764705882);
ENDSEC;
END-ISO-10303-21;
